<svg width="50" height="25" viewBox="0 0 50 25" fill="none" xmlns="http://www.w3.org/2000/svg">
<g clip-path="url(#clip0_228_2928)">
<path d="M40.0362 24.4077C41.7197 24.4077 43.0906 23.0367 43.0906 21.3533C43.0906 20.8049 42.948 20.2839 42.6793 19.8233L44.456 19.8233C44.5328 19.8233 44.5931 19.8288 44.6589 19.8288C46.3424 19.8288 47.7133 18.4579 47.7133 16.7744C47.7133 16.226 47.5707 15.7051 47.302 15.2445C48.821 15.069 50 13.7748 50 12.212C50 10.6492 48.8155 9.34953 47.2911 9.17953C47.5653 8.7189 47.7078 8.18699 47.7078 7.63862C47.7078 5.95514 46.3369 4.58423 44.6534 4.58423L35.0625 4.58423C35.7096 3.81651 36.077 2.83494 36.077 1.81498C36.077 0.795017 35.2654 0.00537045 34.2674 0.00537041L20.6186 0.00536981C16.9939 0.00536965 13.7311 1.59015 11.4937 4.09618C11.4499 4.12908 11.4115 4.16198 11.3786 4.20585C11.2689 4.33198 11.1647 4.4581 11.066 4.58422L0.564815 4.58422C0.263214 4.58422 0.0164488 4.91324 0.00548149 5.31903L0.00548149 5.35742C0.00548149 5.35742 0.00548149 5.37387 0.00548149 5.37935C0.0164487 5.79063 0.263214 6.11965 0.564815 6.11965L10.0132 6.10868C9.65672 6.72285 9.35512 7.36992 9.10836 8.04441C9.07545 8.13215 9.059 8.22537 9.059 8.31311C9.059 8.63665 9.25641 8.93825 9.57447 9.05341C9.98025 9.20147 10.4354 8.99309 10.5835 8.58181C10.6657 8.34601 10.7644 8.1157 10.8631 7.89087C10.8686 7.89087 10.8741 7.89087 10.8741 7.89087C10.8741 7.89087 10.8796 7.86345 10.896 7.81958C11.3238 6.88188 11.8776 6.01546 12.5631 5.23678C12.6069 5.18743 12.6398 5.13259 12.6672 5.07775C14.6249 2.90074 17.4655 1.52983 20.6186 1.52983L34.2674 1.52983C34.4209 1.52983 34.547 1.65595 34.547 1.80949C34.547 3.33395 33.3077 4.57874 31.7778 4.57874L25.828 4.57874C25.4058 4.57874 25.0603 4.92421 25.0603 5.34645C25.0603 8.74632 22.2911 11.5156 18.8912 11.5156C18.469 11.5156 18.1235 11.861 18.1235 12.2833C18.1235 12.7055 18.469 13.051 18.8912 13.051C22.8723 13.051 26.168 10.035 26.5574 6.11417L44.6534 6.11417C45.4924 6.11417 46.1779 6.79962 46.1779 7.63862C46.1779 8.47762 45.4924 9.16308 44.6534 9.16308C44.5986 9.16308 44.5492 9.16308 44.4725 9.15211L30.8346 9.15211C30.4179 9.15211 30.0779 9.48662 30.0669 9.90337L30.0669 9.92531L30.0669 9.94176C30.0669 10.3585 30.4124 10.6985 30.8346 10.6985L46.8359 10.6985C46.8688 10.6985 46.9072 10.693 46.9401 10.693C47.7791 10.693 48.4646 11.3785 48.4646 12.2175C48.4646 13.0565 47.7791 13.7419 46.9401 13.7419C46.9017 13.7419 46.8633 13.7419 46.825 13.7419L46.8085 13.7419L44.8508 13.7419C44.785 13.7419 44.7192 13.7365 44.6534 13.7365C44.5931 13.7365 44.5273 13.7365 44.478 13.7419L30.8291 13.7419C30.4069 13.7419 30.0614 14.0874 30.0614 14.5096C30.0614 14.9319 30.4069 15.2774 30.8291 15.2774L44.785 15.2774C45.5692 15.3432 46.1779 16.0067 46.1779 16.7963C46.1779 17.6353 45.4924 18.3208 44.6534 18.3208C44.615 18.3208 44.5821 18.3208 44.5383 18.3208L29.5514 18.3208C29.1402 18.3208 28.8002 18.6498 28.7837 19.0611L28.7837 19.0995C28.7837 19.0995 28.7837 19.1159 28.7837 19.1214C28.8002 19.5327 29.1347 19.8617 29.5514 19.8617L39.8881 19.8617L39.9265 19.8617C39.9649 19.8617 39.9978 19.8617 40.0362 19.8617C40.8752 19.8617 41.5606 20.5472 41.5606 21.3862C41.5606 22.2252 40.8752 22.9106 40.0362 22.9106C39.9978 22.9106 39.9649 22.9106 39.921 22.9051L20.6186 22.9051C17.5861 22.9051 14.8497 21.6329 12.8976 19.604C12.8647 19.5436 12.8318 19.4888 12.7824 19.434C11.8118 18.3921 11.0715 17.1857 10.5889 15.8586C10.4409 15.4528 9.98574 15.239 9.57995 15.3925C9.2619 15.5077 9.06448 15.8093 9.06448 16.1328C9.06448 16.2205 9.08094 16.3138 9.11384 16.4015C9.3606 17.076 9.6622 17.7176 10.0186 18.3318L0.559329 18.3318C0.257728 18.3318 0.0109626 18.6608 -4.64813e-06 19.0721L-4.64981e-06 19.1104C-4.64981e-06 19.1104 -4.65053e-06 19.1269 -4.65077e-06 19.1324C0.0109626 19.5436 0.257728 19.8727 0.559329 19.8727L11.0715 19.8562C11.2525 20.0756 11.4334 20.2949 11.6308 20.5088C11.6473 20.5307 11.6692 20.5417 11.6912 20.5581C13.923 22.9435 17.098 24.4351 20.6186 24.4351L39.8333 24.4351C39.9101 24.4351 39.9704 24.4406 40.0307 24.4406L40.0362 24.4077Z" fill="white"/>
</g>
<defs>
<clipPath id="clip0_228_2928">
<rect width="24.4078" height="50" fill="white" transform="translate(50) rotate(90)"/>
</clipPath>
</defs>
</svg>
