<svg width="182" height="35" viewBox="0 0 182 35" fill="none" xmlns="http://www.w3.org/2000/svg">
<path d="M0.525568 25L2.94034 10.4545H8.50852C9.55966 10.4545 10.4072 10.6203 11.0511 10.9517C11.6951 11.2784 12.1425 11.7259 12.3935 12.294C12.6491 12.8622 12.7154 13.5062 12.5923 14.2259C12.4929 14.813 12.294 15.3172 11.9957 15.7386C11.7022 16.1553 11.3423 16.4962 10.9162 16.7614C10.4901 17.0218 10.0331 17.2088 9.54545 17.3224L9.51705 17.4645C10.0284 17.4882 10.4972 17.6444 10.9233 17.9332C11.3494 18.2221 11.6714 18.6293 11.8892 19.1548C12.107 19.6757 12.1567 20.303 12.0384 21.0369C11.9105 21.7898 11.6146 22.4669 11.1506 23.0682C10.6866 23.6648 10.0568 24.1359 9.26136 24.4815C8.47064 24.8272 7.52131 25 6.41335 25H0.525568ZM3.52983 22.7983H6.36364C7.31534 22.7983 8.03504 22.616 8.52273 22.2514C9.01042 21.8821 9.30161 21.4086 9.39631 20.831C9.46733 20.4001 9.42472 20.0118 9.26847 19.6662C9.11222 19.3158 8.85417 19.0412 8.49432 18.8423C8.13447 18.6387 7.68466 18.5369 7.14489 18.5369H4.23295L3.52983 22.7983ZM4.55966 16.6406H7.16619C7.62074 16.6406 8.04214 16.5578 8.4304 16.392C8.82339 16.2216 9.1501 15.9825 9.41051 15.6747C9.67566 15.3622 9.83902 14.9929 9.90057 14.5668C10 14.0033 9.88163 13.5393 9.54545 13.1747C9.20928 12.8101 8.6553 12.6278 7.88352 12.6278H5.21307L4.55966 16.6406ZM16.6673 25.2202C15.976 25.2202 15.3746 25.0971 14.8633 24.8509C14.3519 24.5999 13.9755 24.2306 13.734 23.7429C13.4973 23.2552 13.4381 22.6539 13.5565 21.9389C13.6606 21.3234 13.8595 20.8144 14.1531 20.4119C14.4513 20.0095 14.8159 19.6875 15.2468 19.446C15.6824 19.1998 16.1559 19.0152 16.6673 18.892C17.1834 18.7689 17.7089 18.679 18.244 18.6222C18.8974 18.5559 19.4253 18.4943 19.8278 18.4375C20.235 18.3807 20.5404 18.2955 20.744 18.1818C20.9476 18.0634 21.0707 17.8835 21.1133 17.642V17.5994C21.1985 17.0644 21.1133 16.6501 20.8576 16.3565C20.6019 16.063 20.1758 15.9162 19.5792 15.9162C18.9542 15.9162 18.4286 16.0535 18.0025 16.3281C17.5763 16.6027 17.2662 16.9271 17.0721 17.3011L14.7425 16.9602C15.0361 16.2973 15.4386 15.7434 15.9499 15.2983C16.4613 14.8485 17.0508 14.5123 17.7184 14.2898C18.3907 14.0625 19.1081 13.9489 19.8704 13.9489C20.3912 13.9489 20.9002 14.0104 21.3974 14.1335C21.8993 14.2566 22.342 14.4602 22.7255 14.7443C23.1138 15.0237 23.3978 15.4048 23.5778 15.8878C23.7624 16.3707 23.7932 16.9744 23.6701 17.6989L22.4556 25H19.984L20.2397 23.5014H20.1545C19.9509 23.8045 19.6857 24.0885 19.359 24.3537C19.0323 24.6141 18.6441 24.8248 18.1942 24.9858C17.7444 25.142 17.2354 25.2202 16.6673 25.2202ZM17.6403 23.331C18.1564 23.331 18.6204 23.2292 19.0323 23.0256C19.4442 22.8172 19.7828 22.5426 20.0479 22.2017C20.3131 21.8608 20.4788 21.4891 20.5451 21.0866L20.7582 19.8011C20.6635 19.8674 20.5167 19.929 20.3178 19.9858C20.119 20.0426 19.8964 20.0923 19.6502 20.1349C19.4087 20.1776 19.1696 20.2154 18.9329 20.2486C18.6961 20.2817 18.4925 20.3101 18.3221 20.3338C17.9291 20.3859 17.5692 20.4711 17.2425 20.5895C16.9206 20.7079 16.6531 20.8736 16.44 21.0866C16.2317 21.295 16.1014 21.5649 16.0494 21.8963C15.9736 22.3651 16.0849 22.7225 16.3832 22.9688C16.6815 23.2102 17.1005 23.331 17.6403 23.331ZM28.6772 18.608L27.6261 25H25.0479L26.8661 14.0909H29.3306L29.0181 15.9446H29.1531C29.494 15.3338 29.9722 14.8485 30.5877 14.4886C31.2032 14.1288 31.9206 13.9489 32.7397 13.9489C33.4831 13.9489 34.1081 14.1098 34.6147 14.4318C35.1213 14.7491 35.4812 15.2154 35.6942 15.831C35.9073 16.4418 35.9405 17.1828 35.7937 18.054L34.6289 25H32.0579L33.1445 18.4517C33.2676 17.7273 33.1753 17.1591 32.8675 16.7472C32.5645 16.3305 32.0768 16.1222 31.4045 16.1222C30.9547 16.1222 30.5404 16.2216 30.1616 16.4205C29.7828 16.6146 29.4632 16.8963 29.2028 17.2656C28.9471 17.6349 28.7719 18.0824 28.6772 18.608ZM40.1332 21.5767L40.6374 18.473H41.0494L45.7156 14.0909H48.7198L43.0096 19.4602H42.484L40.1332 21.5767ZM37.2283 25L39.6431 10.4545H42.2141L39.7994 25H37.2283ZM44.0749 25L41.3477 20.0355L43.386 18.2244L47.1502 25H44.0749ZM55.0959 12.6634L55.4652 10.4545H67.0703L66.701 12.6634H62.2053L60.1598 25H57.5462L59.5916 12.6634H55.0959ZM65.6463 25L67.4645 14.0909H69.9574L69.652 15.9091H69.7656C70.0639 15.2794 70.4853 14.794 71.0298 14.4531C71.5791 14.1075 72.1662 13.9347 72.7912 13.9347C72.938 13.9347 73.0966 13.9418 73.267 13.956C73.4375 13.9654 73.5843 13.982 73.7074 14.0057L73.3097 16.3707C73.2008 16.3329 73.0303 16.2997 72.7983 16.2713C72.571 16.2382 72.3461 16.2216 72.1236 16.2216C71.6548 16.2216 71.2192 16.3234 70.8168 16.527C70.419 16.7259 70.0829 17.0028 69.8082 17.358C69.5336 17.7131 69.3561 18.1226 69.2756 18.5866L68.2173 25H65.6463ZM76.511 25.2202C75.8197 25.2202 75.2184 25.0971 74.707 24.8509C74.1957 24.5999 73.8192 24.2306 73.5778 23.7429C73.341 23.2552 73.2818 22.6539 73.4002 21.9389C73.5044 21.3234 73.7032 20.8144 73.9968 20.4119C74.2951 20.0095 74.6597 19.6875 75.0906 19.446C75.5262 19.1998 75.9996 19.0152 76.511 18.892C77.0271 18.7689 77.5527 18.679 78.0877 18.6222C78.7411 18.5559 79.2691 18.4943 79.6715 18.4375C80.0787 18.3807 80.3841 18.2955 80.5877 18.1818C80.7913 18.0634 80.9144 17.8835 80.957 17.642V17.5994C81.0423 17.0644 80.957 16.6501 80.7013 16.3565C80.4457 16.063 80.0195 15.9162 79.4229 15.9162C78.7979 15.9162 78.2724 16.0535 77.8462 16.3281C77.4201 16.6027 77.11 16.9271 76.9158 17.3011L74.5863 16.9602C74.8799 16.2973 75.2823 15.7434 75.7937 15.2983C76.305 14.8485 76.8945 14.5123 77.5621 14.2898C78.2345 14.0625 78.9518 13.9489 79.7141 13.9489C80.235 13.9489 80.744 14.0104 81.2411 14.1335C81.743 14.2566 82.1857 14.4602 82.5692 14.7443C82.9575 15.0237 83.2416 15.4048 83.4215 15.8878C83.6062 16.3707 83.637 16.9744 83.5138 17.6989L82.2994 25H79.8278L80.0835 23.5014H79.9982C79.7946 23.8045 79.5295 24.0885 79.2028 24.3537C78.8761 24.6141 78.4878 24.8248 78.038 24.9858C77.5882 25.142 77.0792 25.2202 76.511 25.2202ZM77.484 23.331C78.0001 23.331 78.4641 23.2292 78.8761 23.0256C79.288 22.8172 79.6265 22.5426 79.8917 22.2017C80.1568 21.8608 80.3226 21.4891 80.3888 21.0866L80.6019 19.8011C80.5072 19.8674 80.3604 19.929 80.1616 19.9858C79.9627 20.0426 79.7402 20.0923 79.494 20.1349C79.2525 20.1776 79.0134 20.2154 78.7766 20.2486C78.5399 20.2817 78.3363 20.3101 78.1658 20.3338C77.7728 20.3859 77.413 20.4711 77.0863 20.5895C76.7643 20.7079 76.4968 20.8736 76.2837 21.0866C76.0754 21.295 75.9452 21.5649 75.8931 21.8963C75.8174 22.3651 75.9286 22.7225 76.2269 22.9688C76.5252 23.2102 76.9442 23.331 77.484 23.331ZM88.521 18.608L87.4698 25H84.8917L86.7099 14.0909H89.1744L88.8619 15.9446H88.9968C89.3377 15.3338 89.8159 14.8485 90.4315 14.4886C91.047 14.1288 91.7643 13.9489 92.5835 13.9489C93.3268 13.9489 93.9518 14.1098 94.4585 14.4318C94.9651 14.7491 95.3249 15.2154 95.538 15.831C95.7511 16.4418 95.7842 17.1828 95.6374 18.054L94.4727 25H91.9016L92.9883 18.4517C93.1114 17.7273 93.0191 17.1591 92.7113 16.7472C92.4083 16.3305 91.9206 16.1222 91.2482 16.1222C90.7984 16.1222 90.3841 16.2216 90.0053 16.4205C89.6265 16.6146 89.3069 16.8963 89.0465 17.2656C88.7908 17.6349 88.6156 18.0824 88.521 18.608ZM107.022 16.9744L104.657 17.2301C104.634 16.9886 104.56 16.7637 104.437 16.5554C104.314 16.3471 104.129 16.1813 103.883 16.0582C103.642 15.9304 103.329 15.8665 102.946 15.8665C102.387 15.8665 101.897 15.992 101.475 16.2429C101.054 16.4938 100.815 16.8158 100.758 17.2088C100.706 17.5024 100.777 17.7415 100.971 17.9261C101.165 18.1108 101.525 18.267 102.051 18.3949L103.855 18.7926C104.849 19.0152 105.564 19.375 106 19.8722C106.44 20.3693 106.594 21.0204 106.461 21.8253C106.348 22.4976 106.054 23.0895 105.581 23.6009C105.107 24.1075 104.501 24.5028 103.762 24.7869C103.029 25.071 102.214 25.2131 101.319 25.2131C99.9603 25.2131 98.9139 24.9313 98.18 24.3679C97.4509 23.7997 97.0887 23.0185 97.0934 22.0241L99.6218 21.7827C99.6502 22.2751 99.823 22.6468 100.14 22.8977C100.458 23.1439 100.898 23.2694 101.461 23.2741C102.096 23.2789 102.631 23.1463 103.066 22.8764C103.507 22.6018 103.755 22.268 103.812 21.875C103.859 21.5814 103.786 21.3423 103.592 21.1577C103.403 20.973 103.064 20.8262 102.576 20.7173L100.787 20.3267C99.7733 20.1042 99.0513 19.7277 98.6204 19.1974C98.1942 18.6624 98.0498 17.9877 98.1871 17.1733C98.3008 16.5104 98.5778 15.9399 99.0181 15.4616C99.4632 14.9787 100.034 14.607 100.73 14.3466C101.426 14.0814 102.205 13.9489 103.066 13.9489C104.364 13.9489 105.342 14.2211 106 14.7656C106.658 15.3101 106.999 16.0464 107.022 16.9744ZM115.4 14.0909L115.066 16.0795H108.617L108.951 14.0909H115.4ZM108.738 25L110.733 13.0611C110.847 12.3272 111.096 11.7164 111.479 11.2287C111.867 10.741 112.338 10.3764 112.892 10.1349C113.451 9.89347 114.045 9.77273 114.675 9.77273C115.125 9.77273 115.516 9.80824 115.847 9.87926C116.178 9.95028 116.42 10.0142 116.571 10.071L115.74 12.0597C115.632 12.0265 115.499 11.9934 115.343 11.9602C115.191 11.9223 115.014 11.9034 114.81 11.9034C114.332 11.9034 113.974 12.0194 113.738 12.2514C113.501 12.4787 113.345 12.8054 113.269 13.2315L111.316 25H108.738ZM119.998 25.2131C118.904 25.2131 118 24.9858 117.285 24.5312C116.57 24.072 116.068 23.4233 115.779 22.5852C115.495 21.7424 115.448 20.7505 115.637 19.6094C115.822 18.4872 116.199 17.5024 116.767 16.6548C117.335 15.8026 118.045 15.1397 118.897 14.6662C119.754 14.188 120.701 13.9489 121.738 13.9489C122.411 13.9489 123.029 14.0578 123.592 14.2756C124.155 14.4886 124.631 14.8201 125.02 15.2699C125.408 15.7197 125.675 16.2926 125.822 16.9886C125.969 17.6799 125.962 18.5038 125.801 19.4602L125.68 20.2486H116.731L117.008 18.5156H123.485C123.571 18.0232 123.542 17.5852 123.4 17.2017C123.258 16.8134 123.021 16.508 122.69 16.2855C122.359 16.063 121.944 15.9517 121.447 15.9517C120.94 15.9517 120.467 16.0819 120.027 16.3423C119.591 16.598 119.224 16.9295 118.926 17.3366C118.627 17.7438 118.438 18.1723 118.358 18.6222L118.066 20.2841C117.962 20.9659 117.986 21.5223 118.137 21.9531C118.289 22.384 118.554 22.7012 118.933 22.9048C119.312 23.1084 119.79 23.2102 120.368 23.2102C120.746 23.2102 121.097 23.1581 121.419 23.054C121.741 22.9498 122.027 22.7936 122.278 22.5852C122.534 22.3722 122.747 22.1117 122.917 21.804L125.268 22.0739C125.008 22.7083 124.627 23.2623 124.125 23.7358C123.623 24.2045 123.021 24.5691 122.321 24.8295C121.625 25.0852 120.85 25.2131 119.998 25.2131ZM127.072 25L128.89 14.0909H131.383L131.078 15.9091H131.191C131.49 15.2794 131.911 14.794 132.456 14.4531C133.005 14.1075 133.592 13.9347 134.217 13.9347C134.364 13.9347 134.522 13.9418 134.693 13.956C134.863 13.9654 135.01 13.982 135.133 14.0057L134.735 16.3707C134.627 16.3329 134.456 16.2997 134.224 16.2713C133.997 16.2382 133.772 16.2216 133.549 16.2216C133.081 16.2216 132.645 16.3234 132.243 16.527C131.845 16.7259 131.509 17.0028 131.234 17.358C130.959 17.7131 130.782 18.1226 130.701 18.5866L129.643 25H127.072Z" fill="white"/>
<path d="M170.333 5.33337H161C160.381 5.33337 159.788 5.57921 159.35 6.01679C158.912 6.45438 158.667 7.04787 158.667 7.66671V26.3334C158.667 26.9522 158.912 27.5457 159.35 27.9833C159.788 28.4209 160.381 28.6667 161 28.6667H175C175.619 28.6667 176.212 28.4209 176.65 27.9833C177.087 27.5457 177.333 26.9522 177.333 26.3334V12.3334L170.333 5.33337Z" stroke="white" stroke-width="1.5" stroke-linecap="round" stroke-linejoin="round"/>
<path d="M170.333 5.33337V12.3334H177.333" stroke="white" stroke-width="1.5" stroke-linecap="round" stroke-linejoin="round"/>
<path d="M172.667 18.1666H163.333" stroke="white" stroke-width="1.5" stroke-linecap="round" stroke-linejoin="round"/>
<path d="M172.667 22.8334H163.333" stroke="white" stroke-width="1.5" stroke-linecap="round" stroke-linejoin="round"/>
<path d="M165.667 13.5H164.5H163.333" stroke="white" stroke-width="1.5" stroke-linecap="round" stroke-linejoin="round"/>
</svg>
