<svg width="71" height="19" viewBox="0 0 71 19" fill="none" xmlns="http://www.w3.org/2000/svg">
<g clip-path="url(#clip0_312_553)">
<path d="M9.15691 5.19412C8.85533 7.18379 7.34071 7.18379 5.87664 7.18379H5.04267L5.62729 3.4667C5.66267 3.24167 5.85642 3.07587 6.08218 3.07587H6.46463C7.46202 3.07587 8.40212 3.07587 8.88902 3.64604C9.17881 3.98611 9.2681 4.49199 9.15691 5.19243V5.19412ZM8.52006 0H2.99735C2.61996 0 2.29817 0.275779 2.2392 0.65138L0.00517968 14.8718C-0.0386246 15.1526 0.177027 15.4047 0.46007 15.4047H3.09675C3.47414 15.4047 3.79593 15.1289 3.8549 14.7533L4.45805 10.9178C4.51702 10.5422 4.83881 10.2664 5.2162 10.2664H6.96501C10.6024 10.2664 12.7017 8.4984 13.2509 4.99617C13.4986 3.46331 13.261 2.25868 12.5467 1.41612C11.7599 0.49065 10.3683 0 8.52006 0Z" fill="white"/>
<path d="M21.3412 10.2986C21.0868 11.8162 19.8873 12.8347 18.3575 12.8347C17.5892 12.8347 16.976 12.5877 16.5817 12.119C16.1908 11.6538 16.0426 10.9905 16.1673 10.2529C16.4048 8.74878 17.6246 7.69642 19.1308 7.69642C19.8822 7.69642 20.4921 7.94682 20.8948 8.41886C21.2974 8.89597 21.4575 9.56258 21.3429 10.2986H21.3412ZM25.0275 5.12981H22.3824C22.1567 5.12981 21.9629 5.29562 21.9275 5.52064L21.8113 6.26338L21.6259 5.99437C21.0531 5.16027 19.7761 4.8811 18.5024 4.8811C15.5793 4.8811 13.0841 7.10425 12.5972 10.2224C12.3445 11.7773 12.7034 13.2645 13.5828 14.3016C14.3881 15.2558 15.5422 15.6517 16.9136 15.6517C19.2689 15.6517 20.5746 14.1307 20.5746 14.1307L20.4567 14.8684C20.4129 15.1509 20.6286 15.403 20.9099 15.403H23.2922C23.6713 15.403 23.9914 15.1272 24.0503 14.7516L25.479 5.66276C25.5245 5.3836 25.3089 5.12981 25.0258 5.12981H25.0275Z" fill="white"/>
<path d="M39.1121 5.12988H36.4552C36.2008 5.12988 35.9632 5.25678 35.82 5.46826L32.1556 10.8908L30.6022 5.68144C30.5045 5.35491 30.2046 5.13157 29.866 5.13157H27.2546C26.9379 5.13157 26.7171 5.44288 26.8182 5.74235L29.7447 14.3693L26.9934 18.2708C26.7778 18.5788 26.9934 19.0001 27.3692 19.0001H30.0227C30.2754 19.0001 30.5096 18.8765 30.6528 18.6684L39.4911 5.85571C39.7034 5.54947 39.4861 5.12988 39.1138 5.12988H39.1121Z" fill="white"/>
<path d="M48.547 5.19412C48.2455 7.18379 46.7325 7.18379 45.2668 7.18379H44.4345L45.0191 3.4667C45.0545 3.24167 45.2466 3.07587 45.4723 3.07587H45.8548C46.8505 3.07587 47.7923 3.07587 48.2792 3.64604C48.5689 3.98611 48.6566 4.49199 48.547 5.19243V5.19412ZM47.9102 0H42.3875C42.0101 0 41.6883 0.275779 41.6293 0.649688L39.3953 14.8701C39.3515 15.1509 39.5672 15.403 39.8485 15.403H42.6823C42.9451 15.403 43.1709 15.2102 43.2113 14.9479L43.8448 10.9161C43.9038 10.5405 44.2256 10.2647 44.603 10.2647H46.3501C49.9892 10.2647 52.0868 8.49671 52.636 4.99448C52.8837 3.46162 52.6461 2.25699 51.9318 1.41443C51.15 0.49065 49.7584 0 47.9102 0Z" fill="white"/>
<path d="M60.7315 10.2986C60.4788 11.8162 59.2775 12.8347 57.7477 12.8347C56.9811 12.8347 56.3662 12.5877 55.972 12.119C55.5811 11.6538 55.4345 10.9905 55.5575 10.2529C55.7967 8.74878 57.0148 7.69642 58.521 7.69642C59.2724 7.69642 59.8823 7.94682 60.285 8.41886C60.6894 8.89597 60.8494 9.56258 60.7332 10.2986H60.7315ZM64.4178 5.12981H61.7743C61.5469 5.12981 61.3548 5.29562 61.3211 5.52064L61.2049 6.26338L61.0196 5.99437C60.4467 5.16027 59.1714 4.8811 57.8977 4.8811C54.9746 4.8811 52.4794 7.10425 51.9942 10.2224C51.7415 11.7773 52.1003 13.2645 52.9781 14.3016C53.7851 15.2558 54.9375 15.6517 56.3089 15.6517C58.6642 15.6517 59.9699 14.1307 59.9699 14.1307L59.852 14.8684C59.8082 15.1509 60.0239 15.403 60.3069 15.403H62.6875C63.0649 15.403 63.3867 15.1272 63.4456 14.7516L64.876 5.66276C64.9198 5.3836 64.7025 5.12981 64.4194 5.12981H64.4178Z" fill="white"/>
<path d="M67.5344 0.390811L65.2684 14.8718C65.2246 15.1526 65.4402 15.4047 65.7216 15.4047H68.0011C68.3802 15.4047 68.7019 15.1289 68.7592 14.7533L70.9949 0.53293C71.0387 0.252076 70.8231 -0.00170898 70.5417 -0.00170898H67.9893C67.7635 -0.00170898 67.5698 0.164097 67.5361 0.389119L67.5344 0.390811Z" fill="white"/>
</g>
<defs>
<clipPath id="clip0_312_553">
<rect width="71" height="19" fill="white"/>
</clipPath>
</defs>
</svg>
