<svg width="162" height="34" viewBox="0 0 162 34" fill="none" xmlns="http://www.w3.org/2000/svg">
<path d="M93.8585 17.1913C94.0484 17.3079 94.2252 17.409 94.394 17.5217C95.4469 18.2251 95.9618 19.1898 95.8006 20.4649C95.6855 21.3741 95.3826 22.2181 94.822 22.9541C94.2478 23.7075 93.4631 24.1085 92.5408 24.2672C91.7124 24.4094 90.8845 24.3618 90.0576 24.2542C89.7587 24.2151 89.4618 24.1631 89.1649 24.1095C89.0755 24.0935 89.0459 24.1155 89.0243 24.2036C88.7967 25.1283 88.5616 26.051 88.335 26.9751C88.3059 27.0928 88.2702 27.1253 88.1446 27.0923C87.6337 26.9571 87.1203 26.8315 86.6064 26.7093C86.4954 26.6828 86.4582 26.6557 86.4909 26.5286C86.7245 25.6249 86.945 24.7178 87.1761 23.8131C87.2032 23.7075 87.1882 23.669 87.0781 23.6424C86.6773 23.5453 86.2784 23.4407 85.88 23.3325C85.779 23.305 85.7383 23.3225 85.7117 23.4317C85.4867 24.3473 85.2531 25.2605 85.0285 26.1761C85.0014 26.2863 84.9662 26.3018 84.8607 26.2743C84.3403 26.1386 83.8188 26.0084 83.2954 25.8848C83.1864 25.8592 83.1663 25.8237 83.1934 25.717C83.4265 24.7989 83.6516 23.8787 83.8862 22.9606C83.9158 22.8444 83.8982 22.8014 83.7786 22.7713C82.6358 22.488 81.4949 22.1971 80.3521 21.9142C80.242 21.8872 80.2345 21.8572 80.2767 21.761C80.55 21.1438 80.8198 20.525 81.0835 19.9037C81.1262 19.8031 81.1699 19.7916 81.2694 19.8176C81.6954 19.9287 82.1163 20.0619 82.5519 20.1315C82.9342 20.1926 83.2291 19.9983 83.3245 19.6223C83.6576 18.3052 83.9876 16.987 84.3177 15.6688C84.6563 14.3151 84.9863 12.9589 85.3365 11.6077C85.4379 11.2157 85.2983 10.6715 84.7301 10.4628C84.3986 10.3411 84.0529 10.2695 83.7108 10.1859C83.5667 10.1509 83.4225 10.1148 83.2773 10.0848C83.2125 10.0713 83.1823 10.0582 83.2029 9.97814C83.3547 9.3874 83.5034 8.79565 83.6465 8.2024C83.6747 8.08675 83.7415 8.1273 83.8038 8.14232C84.4433 8.29852 85.0823 8.45672 85.7213 8.61492C86.2251 8.73958 86.73 8.86173 87.2324 8.9919C87.3394 9.01943 87.3811 9.00291 87.4087 8.88927C87.6297 7.98262 87.8608 7.07797 88.0813 6.17083C88.111 6.04917 88.1512 6.02264 88.2722 6.05418C88.7786 6.18685 89.287 6.31551 89.7974 6.43316C89.9275 6.4632 89.9541 6.50325 89.921 6.63191C89.6934 7.51803 89.4759 8.40716 89.2498 9.29378C89.2247 9.3924 89.2353 9.42694 89.3418 9.44997C89.7492 9.53859 90.1551 9.63571 90.5595 9.73784C90.6695 9.76537 90.7011 9.73083 90.7258 9.6302C90.9398 8.7596 91.1583 7.89 91.3758 7.0204C91.421 6.83967 91.4205 6.83867 91.6004 6.88323C92.1088 7.00989 92.6156 7.14055 93.1255 7.26121C93.236 7.28724 93.2526 7.32379 93.2255 7.42942C92.9929 8.34307 92.7689 9.25873 92.5348 10.1719C92.5066 10.281 92.5358 10.3151 92.6327 10.3486C93.4335 10.626 94.2046 10.9644 94.8858 11.478C95.5107 11.9491 96.0136 12.5249 96.1462 13.3124C96.3617 14.5925 96.0899 15.7424 95.0631 16.6286C94.7607 16.8894 94.3925 17.0371 94.0107 17.1472C93.9665 17.1602 93.9218 17.1722 93.8595 17.1898L93.8585 17.1913ZM89.718 21.7095C90.0149 21.7065 90.348 21.6844 90.674 21.6023C91.3246 21.4391 91.7938 21.0757 91.9766 20.4093C92.161 19.737 91.9902 19.1588 91.4888 18.6751C91.1538 18.3522 90.7564 18.1259 90.3349 17.9377C89.4056 17.5232 88.4149 17.3179 87.4303 17.0916C87.3283 17.0681 87.3369 17.1312 87.3228 17.1863C87.0043 18.4544 86.6873 19.723 86.3668 20.9906C86.3437 21.0822 86.3718 21.1102 86.4572 21.1307C86.7727 21.2068 87.0852 21.2935 87.4007 21.3695C88.1502 21.5508 88.9062 21.693 89.719 21.7095H89.718ZM90.5519 15.7264C90.772 15.7244 91.0217 15.7119 91.2678 15.6588C91.9013 15.5212 92.3579 15.1812 92.5398 14.5384C92.7272 13.8756 92.5684 13.3069 92.0515 12.8418C91.7797 12.5975 91.4662 12.4197 91.1347 12.2725C90.3927 11.9431 89.6025 11.7799 88.8163 11.6012C88.7334 11.5822 88.7128 11.6182 88.6962 11.6868C88.6294 11.9652 88.5586 12.2425 88.4893 12.5204C88.2727 13.385 88.0572 14.2495 87.8377 15.1136C87.8151 15.2028 87.8312 15.2478 87.9266 15.2653C88.0221 15.2829 88.1155 15.3119 88.2094 15.3364C88.9685 15.5342 89.7296 15.7174 90.5514 15.7264H90.5519Z" fill="#FEFEFD"/>
<path d="M108.004 17.0055C108.008 17.007 108.012 17.007 108.016 17.0045C108.072 16.9524 108.146 16.9349 108.212 16.9048C108.591 16.7331 108.969 16.5619 109.348 16.3897C109.68 16.2385 110.013 16.0873 110.345 15.9361C110.728 15.7619 111.111 15.5892 111.494 15.416C111.819 15.2693 112.143 15.1221 112.467 14.9749C112.852 14.8007 113.237 14.626 113.623 14.4517C113.949 14.304 114.276 14.1559 114.602 14.0082C114.983 13.836 115.363 13.6632 115.745 13.491C116.025 13.3639 116.306 13.2372 116.586 13.1095C116.615 13.096 116.643 13.0675 116.681 13.088C116.686 13.095 116.689 13.1025 116.691 13.111C116.695 13.1431 116.694 13.1751 116.694 13.2072C116.694 16.1364 116.694 19.0661 116.694 21.9953C116.694 22.0383 116.701 22.0829 116.675 22.1219C116.413 21.9697 116.152 21.818 115.891 21.6649C113.657 20.3487 111.423 19.0325 109.189 17.7164C108.794 17.4836 108.399 17.2518 108.004 17.0195V17.0055Z" fill="#AEAEAE"/>
<path d="M116.675 22.122C116.675 19.1302 116.675 16.1389 116.675 13.1472C116.675 13.1266 116.676 13.1061 116.676 13.0851C116.667 13.056 116.669 13.026 116.669 12.9965C116.669 9.60618 116.669 6.21589 116.67 2.82561C116.67 2.78656 116.649 2.7375 116.701 2.70996C116.888 3.01685 117.076 3.32374 117.262 3.63113C119.939 8.05973 122.617 12.4878 125.294 16.9164C125.312 16.9455 125.328 16.976 125.344 17.0055C125.305 17.0251 125.272 17 125.241 16.986C125.021 16.8864 124.801 16.7868 124.581 16.6871C124.148 16.4909 123.714 16.2946 123.28 16.0984C122.849 15.9026 122.418 15.7074 121.986 15.5117C121.549 15.3129 121.112 15.1141 120.674 14.9164C120.248 14.7242 119.824 14.5314 119.398 14.3387C118.959 14.1394 118.519 13.9407 118.079 13.7409C117.654 13.5482 117.229 13.3559 116.804 13.1627C116.792 13.1572 116.779 13.1507 116.766 13.1452C116.73 13.1281 116.709 13.1361 116.709 13.1797C116.709 13.2047 116.709 13.2303 116.709 13.2553C116.709 16.163 116.709 19.0707 116.709 21.9778C116.709 22.0229 116.72 22.0699 116.69 22.111C116.688 22.1185 116.686 22.1255 116.675 22.121L116.675 22.122Z" fill="#A2A2A2"/>
<path d="M116.689 22.112C116.689 21.392 116.688 20.6721 116.688 19.9522C116.688 17.6964 116.688 15.4405 116.688 13.1847C116.688 13.0865 116.688 13.0875 116.782 13.1301C117.281 13.3569 117.781 13.5822 118.28 13.8085C118.61 13.9581 118.939 14.1098 119.27 14.259C119.748 14.4758 120.227 14.6906 120.706 14.9068C120.98 15.0305 121.252 15.1567 121.526 15.2803C121.919 15.4585 122.312 15.6353 122.705 15.8135C122.979 15.9376 123.251 16.0628 123.525 16.187C123.909 16.3612 124.294 16.5339 124.679 16.7076C124.89 16.8032 125.101 16.8989 125.312 16.9945C125.322 16.999 125.334 17.0015 125.344 17.005C125.345 17.0425 125.31 17.043 125.289 17.0551C123.84 17.9101 122.39 18.7642 120.941 19.6183C119.56 20.4318 118.18 21.2454 116.799 22.0579C116.764 22.0784 116.733 22.1085 116.689 22.111L116.689 22.112Z" fill="#636363"/>
<path d="M116.688 23.761C117.293 23.4046 117.897 23.0471 118.503 22.6912C120.215 21.6829 121.928 20.6756 123.64 19.6678C124.182 19.3489 124.724 19.03 125.267 18.7116C125.285 18.7006 125.301 18.6806 125.329 18.6876C125.327 18.7126 125.308 18.7272 125.296 18.7447C122.442 22.7518 119.588 26.7583 116.733 30.7644C116.717 30.7864 116.714 30.826 116.673 30.8225C116.656 30.7864 116.653 30.7479 116.653 30.7083C116.653 28.4319 116.653 26.1561 116.653 23.8797C116.653 23.8376 116.644 23.7906 116.689 23.761H116.688Z" fill="#7D7D7D"/>
<path d="M116.688 23.761C116.67 23.793 116.677 23.8281 116.677 23.8621C116.677 26.15 116.677 28.4384 116.677 30.7263C116.677 30.7584 116.674 30.7904 116.673 30.8224C116.551 30.6733 116.446 30.512 116.334 30.3554C115.346 28.9691 114.359 27.5823 113.371 26.1956C112.387 24.8123 111.403 23.4291 110.418 22.0463C109.633 20.9434 108.848 19.8411 108.063 18.7382C108.05 18.7196 108.037 18.7006 108.011 18.6641C108.062 18.6921 108.097 18.7096 108.13 18.7296C109.832 19.7324 111.534 20.7352 113.236 21.7375C114.368 22.4043 115.5 23.0706 116.632 23.737C116.65 23.7475 116.669 23.7535 116.688 23.7615V23.761Z" fill="white"/>
<path d="M116.7 2.70996C116.679 2.73599 116.689 2.76753 116.689 2.79607C116.689 6.19486 116.689 9.59366 116.688 12.9925C116.688 13.0235 116.699 13.057 116.676 13.0856H116.675C116.654 13.0661 116.654 13.04 116.653 13.015C116.651 12.9875 116.652 12.9599 116.652 12.9324C116.652 9.57214 116.652 6.21189 116.652 2.85214C116.652 2.79506 116.65 2.73749 116.676 2.68392C116.68 2.68292 116.685 2.68192 116.689 2.68042C116.693 2.69043 116.696 2.70045 116.7 2.71046V2.70996Z" fill="#393939"/>
<path d="M116.676 2.68335C116.676 6.14122 116.676 9.5991 116.676 13.057C116.676 13.066 116.675 13.0755 116.675 13.0845C116.267 13.2707 115.86 13.4575 115.453 13.6422C115.022 13.838 114.591 14.0317 114.16 14.2269C113.415 14.5639 112.67 14.9013 111.926 15.2382C111.405 15.474 110.885 15.7103 110.364 15.9466C109.592 16.2966 108.821 16.646 108.049 16.9955C108.039 17 108.028 17.0015 108.017 17.0045C108.146 16.7882 108.273 16.5709 108.403 16.3551C109.508 14.5278 110.612 12.701 111.717 10.8742C113.128 8.54126 114.539 6.20781 115.95 3.87486C116.182 3.49037 116.415 3.10538 116.648 2.7209C116.656 2.70738 116.666 2.69587 116.676 2.68335Z" fill="white"/>
<path d="M147.251 11.7934V14.2259C147.943 14.2815 148.618 14.3206 149.289 14.3927C150.927 14.5684 152.56 14.7801 154.099 15.4185C154.307 15.5046 154.509 15.6102 154.695 15.7359C155.346 16.1769 155.357 16.672 154.7 17.0951C154.37 17.3078 154 17.4751 153.628 17.6057C152.239 18.0943 150.79 18.2976 149.332 18.4448C148.649 18.5139 147.963 18.5579 147.246 18.616V26.3953H143.186V18.6205C142.44 18.5599 141.732 18.5199 141.029 18.4423C139.413 18.2646 137.8 18.0588 136.286 17.416C135.994 17.2918 135.71 17.1186 135.468 16.9138C135.105 16.606 135.097 16.2135 135.476 15.9256C135.821 15.6638 136.217 15.444 136.622 15.2913C138.063 14.7481 139.58 14.5504 141.102 14.3922C141.775 14.3226 142.45 14.2815 143.15 14.2254V11.8049H137.606V8.1012H152.799V11.7929H147.251L147.251 11.7934ZM143.179 14.5393C143.096 14.5328 143.055 14.5228 143.014 14.5273C141.593 14.6855 140.165 14.7962 138.755 15.0245C138.014 15.1446 137.281 15.4144 136.59 15.7198C135.989 15.9857 135.999 16.4598 136.596 16.7521C137.121 17.009 137.688 17.2092 138.258 17.3439C140.087 17.7769 141.956 17.9076 143.83 17.9587C146.623 18.0348 149.408 17.9507 152.147 17.3394C152.747 17.2057 153.335 16.9669 153.888 16.6921C154.364 16.4548 154.353 16.0583 153.906 15.7724C153.646 15.6067 153.359 15.466 153.065 15.3734C151.191 14.7831 149.251 14.6305 147.303 14.5348C147.287 14.5338 147.27 14.5584 147.232 14.5879V17.2538H143.18V14.5388L143.179 14.5393Z" fill="white"/>
<g clip-path="url(#clip0_401_139)">
<path d="M59.0002 11.9703H55.9311L54.1549 19.559L53.9057 20.6003C53.7344 20.6476 53.563 20.695 53.3917 20.7268C53.0802 20.7896 52.7529 20.8214 52.4104 20.8214C52.0208 20.8214 51.7095 20.7585 51.4756 20.6479C51.2573 20.5375 51.086 20.38 50.9925 20.1587C50.8988 19.9536 50.8677 19.7012 50.8835 19.4171C50.8993 19.1329 50.9614 18.8174 51.0393 18.5022L51.9741 14.5576L52.5815 11.9388H49.45L48.0324 17.997C47.8608 18.7226 47.7676 19.4168 47.7364 20.0798C47.7051 20.7423 47.8143 21.3104 48.0324 21.8311C48.2505 22.3361 48.6399 22.7302 49.1697 23.0299C49.6995 23.3299 50.4627 23.4716 51.4289 23.4716C52.0989 23.4716 52.6908 23.409 53.1895 23.2983C53.205 23.2983 53.2362 23.2825 53.2518 23.2825C53.1116 23.9135 52.831 24.4182 52.3946 24.813C51.9429 25.2074 51.2882 25.4124 50.416 25.4124C50.0419 25.4124 49.6995 25.3967 49.3877 25.3496L48.7803 27.9211C49.1855 27.9685 49.6374 28 50.1356 28C51.0704 28 51.8804 27.8896 52.5815 27.6843C53.2827 27.4635 53.8748 27.148 54.3888 26.7061C54.8872 26.2644 55.308 25.7121 55.6507 25.0654C55.9934 24.4027 56.2582 23.6296 56.4607 22.7145L58.5795 13.6901L59.0002 11.9706V11.9703ZM46.1472 18.4547C45.9601 19.2436 45.898 20.0483 45.9756 20.8369C46.0535 21.6414 46.3653 22.8564 46.6612 23.4716H43.7011C43.3428 22.8564 43.3584 22.5567 43.2808 22.3674C42.8911 22.6829 42.4708 22.9513 42.0033 23.1563C41.5358 23.3614 41.0215 23.4718 40.4296 23.4718C39.7441 23.4718 39.1522 23.3454 38.6691 23.109C38.1862 22.8724 37.781 22.5412 37.4695 22.1308C37.1577 21.7205 36.9399 21.2473 36.7995 20.695C36.6593 20.1427 36.597 19.559 36.597 18.9281C36.597 17.9654 36.7686 17.0663 37.0957 16.2146C37.4383 15.3626 37.9056 14.6207 38.4977 13.9898C39.0896 13.3586 40.5387 11.9545 42.9067 11.9545H47.6586L46.147 18.4544L46.1472 18.4547ZM43.9817 14.5892C42.5485 14.5892 42.2834 14.5892 41.6915 14.8891C41.2707 15.11 40.9278 15.4414 40.6319 15.82C40.336 16.1986 40.0865 16.6405 39.9154 17.1455C39.7441 17.6504 39.6506 18.1707 39.6506 18.7073C39.6506 19.3698 39.7599 19.9063 39.9779 20.3006C40.196 20.695 40.6012 20.8842 41.1931 20.8842C41.5049 20.8842 41.8006 20.8214 42.0503 20.695C42.2992 20.5685 42.5796 20.364 42.8602 20.064C42.8916 19.717 42.9381 19.354 43.0004 18.9757C43.0625 18.5966 43.1406 18.2338 43.2029 17.9184L43.9817 14.5892ZM35.7557 16.5298C35.7557 17.5553 35.5841 18.4862 35.257 19.338C34.9299 20.1897 34.4624 20.9158 33.8703 21.531C33.2781 22.1461 32.5772 22.6196 31.7515 22.9668C30.9257 23.3136 30.0376 23.4874 29.0717 23.4874C28.6044 23.4874 28.1369 23.44 27.6538 23.3612L26.7192 27.1635H23.6498L27.2174 11.9859H31.3149C32.0941 11.9859 32.7637 12.1123 33.3091 12.3486C33.8698 12.5852 34.3217 12.9167 34.6958 13.3271C35.054 13.7372 35.3188 14.2262 35.4902 14.7785C35.6776 15.315 35.7554 15.8989 35.7554 16.5298H35.7557ZM28.2306 20.8369C28.4642 20.8998 28.7604 20.9158 29.1031 20.9158C29.6485 20.9158 30.1313 20.8212 30.583 20.6159C31.0191 20.4108 31.4088 20.1266 31.7203 19.7641C32.0321 19.4011 32.2657 18.9594 32.4526 18.4547C32.6239 17.9494 32.7174 17.3816 32.7174 16.7667C32.7174 16.1517 32.5926 15.6463 32.328 15.2359C32.0632 14.81 31.6115 14.5892 30.9571 14.5892H29.7417L28.2303 20.8372L28.2306 20.8369ZM21.7807 20.8369C21.3911 20.8369 21.0798 20.7738 20.8459 20.6634C20.6278 20.553 20.4563 20.3953 20.363 20.1742C20.2696 19.9691 20.2382 19.7168 20.254 19.4326C20.2696 19.1487 20.3317 18.833 20.4098 18.5175L21.3443 14.5732H24.8343L25.4731 11.9543H21.9676L22.7776 8.64092L19.5059 9.16121L17.4338 18.0281C17.2622 18.7536 17.169 19.4481 17.1376 20.1106C17.1062 20.7731 17.2155 21.3414 17.4338 21.862C17.6519 22.367 18.0413 22.7611 18.5711 23.061C19.1009 23.3609 19.8641 23.5026 20.8301 23.5026C21.5001 23.5026 22.092 23.4396 22.5906 23.3291C22.6374 23.3131 22.7153 23.2974 22.7617 23.2818L23.4006 20.5838C23.1825 20.6627 22.9645 20.7103 22.7617 20.7416C22.4507 20.8051 22.1231 20.8367 21.7807 20.8367V20.8369ZM13.9752 11.9703L11.2643 23.4874H14.3335L17.0288 11.9703H13.9752ZM17.3559 10.6449L17.8232 8.64116H14.754L14.2867 10.6449H17.3559ZM7.18244 11.9859C7.83663 11.9859 8.41318 12.1123 8.89604 12.3486C9.37913 12.5852 9.76853 12.901 10.0956 13.3113C10.4074 13.7217 10.641 14.1951 10.7965 14.7314C10.9523 15.2675 11.0302 15.8516 11.0302 16.4825C11.0302 17.4449 10.8588 18.3442 10.5006 19.212C10.1421 20.064 9.67484 20.8212 9.06737 21.4523C8.45967 22.0835 7.74294 22.5885 6.91741 22.9513C6.09165 23.3141 5.20358 23.5034 4.23787 23.5034C4.11302 23.5034 3.8952 23.5034 3.58368 23.4876C3.27192 23.4876 2.91367 23.4558 2.52427 23.3929C2.1193 23.3299 1.69851 23.251 1.26238 23.1408C0.82696 23.0335 0.404048 22.8803 0.000488281 22.6831L3.56786 7.50523L6.76165 7L5.49952 12.3797C5.77989 12.2538 6.02911 12.1589 6.30971 12.0958C6.5745 12.0172 6.87068 11.9854 7.1822 11.9854L7.18244 11.9859ZM4.50266 20.9158C4.98575 20.9158 5.43746 20.8051 5.85801 20.553C6.28422 20.3138 6.66017 19.9921 6.96414 19.6064C7.2759 19.2118 7.52511 18.7544 7.69645 18.2649C7.86778 17.7599 7.96124 17.2396 7.96124 16.7031C7.96124 16.0404 7.85221 15.5198 7.63414 15.1413C7.41608 14.7625 6.96414 14.589 6.37225 14.589C6.1851 14.589 5.98285 14.6047 5.6711 14.6836C5.35934 14.7465 5.09478 14.9044 4.84557 15.1253L3.5058 20.8525C3.91077 20.9156 4.03538 20.9311 4.14465 20.9311C4.22253 20.9156 4.34714 20.9156 4.5029 20.9156L4.50266 20.9158Z" fill="white"/>
</g>
<defs>
<clipPath id="clip0_401_139">
<rect width="59" height="21" fill="white" transform="translate(0 7)"/>
</clipPath>
</defs>
</svg>
