<svg width="201" height="49" viewBox="0 0 201 49" fill="none" xmlns="http://www.w3.org/2000/svg">
<path fill-rule="evenodd" clip-rule="evenodd" d="M21.8579 33.1939H17.4961L14.2252 20.8094C14.07 20.2397 13.7403 19.7361 13.2555 19.4987C12.0454 18.9022 10.712 18.4274 9.25732 18.188V17.7112H16.2838C17.2536 17.7112 17.9809 18.4274 18.1022 19.2593L19.7992 28.1926L24.1589 17.7112H28.3995L21.8579 33.1939ZM30.8239 33.1939H26.7046L30.0966 17.7112H34.216L30.8239 33.1939ZM39.5454 22.0004C39.6666 21.1665 40.3939 20.6897 41.2425 20.6897C42.5759 20.57 44.0284 20.8094 45.2406 21.4039L45.9679 18.0704C44.7557 17.5936 43.4223 17.3541 42.2122 17.3541C38.2141 17.3541 35.3048 19.4987 35.3048 22.4751C35.3048 24.7394 37.3656 25.9283 38.8202 26.6446C40.3939 27.3587 41 27.8355 40.8788 28.5497C40.8788 29.621 39.6666 30.0978 38.4565 30.0978C37.0019 30.0978 35.5473 29.7407 34.216 29.1442L33.4886 32.4797C34.9433 33.0742 36.517 33.3136 37.9717 33.3136C42.4547 33.4313 45.2406 31.2887 45.2406 28.0729C45.2406 24.0232 39.5454 23.7858 39.5454 22.0004V22.0004ZM59.6573 33.1939L56.3865 17.7112H52.8732C52.1459 17.7112 51.4186 18.188 51.1762 18.9022L45.1194 33.1939H49.36L50.2064 30.9316H55.4167L55.9016 33.1939H59.6573ZM53.4793 21.8807L54.6894 27.7158H51.2974L53.4793 21.8807Z" fill="white"/>
<path d="M179.119 35.8124C184.464 35.8383 189.343 31.4017 189.343 26.0046C189.343 20.1031 184.464 16.0233 179.119 16.0255H174.519C169.11 16.0233 164.657 20.1042 164.657 26.0046C164.657 31.4028 169.11 35.8383 174.519 35.8124H179.119Z" fill="#0079BE"/>
<path d="M174.54 16.8434C169.597 16.845 165.592 20.8983 165.591 25.9011C165.592 30.9033 169.597 34.9566 174.54 34.9583C179.484 34.9566 183.491 30.9033 183.491 25.9011C183.491 20.8983 179.485 16.845 174.54 16.8434ZM168.868 25.9011C168.867 24.7444 169.214 23.6143 169.864 22.6585C170.513 21.7027 171.436 20.9657 172.51 20.5437V31.258C171.435 30.8363 170.513 30.0994 169.863 29.1436C169.214 28.1879 168.867 27.0578 168.868 25.9011V25.9011ZM176.571 31.2602V20.5431C177.646 20.9645 178.569 21.7015 179.219 22.6576C179.869 23.6138 180.216 24.7444 180.215 25.9017C180.216 27.0588 179.869 28.1894 179.218 29.1455C178.568 30.1016 177.645 30.8386 176.571 31.2602V31.2602Z" fill="white"/>
<path d="M179.119 35.8124C184.464 35.8383 189.343 31.4017 189.343 26.0046C189.343 20.1031 184.464 16.0233 179.119 16.0255H174.519C169.11 16.0233 164.657 20.1042 164.657 26.0046C164.657 31.4028 169.11 35.8383 174.519 35.8124H179.119Z" fill="#0079BE"/>
<path d="M174.54 16.8434C169.597 16.845 165.592 20.8983 165.591 25.9011C165.592 30.9033 169.597 34.9566 174.54 34.9583C179.484 34.9566 183.491 30.9033 183.491 25.9011C183.491 20.8983 179.485 16.845 174.54 16.8434ZM168.868 25.9011C168.867 24.7444 169.214 23.6143 169.864 22.6585C170.513 21.7027 171.436 20.9657 172.51 20.5437V31.258C171.435 30.8363 170.513 30.0994 169.863 29.1436C169.214 28.1879 168.867 27.0578 168.868 25.9011V25.9011ZM176.571 31.2602V20.5431C177.646 20.9645 178.569 21.7015 179.219 22.6576C179.869 23.6138 180.216 24.7444 180.215 25.9017C180.216 27.0588 179.869 28.1894 179.218 29.1455C178.568 30.1016 177.645 30.8386 176.571 31.2602V31.2602Z" fill="white"/>
<path fill-rule="evenodd" clip-rule="evenodd" d="M91.3426 32.5908C89.7085 34.0047 87.5887 34.8582 85.2724 34.8582C80.1039 34.8582 75.9141 30.6087 75.9141 25.3666C75.9141 20.1245 80.1039 15.875 85.2724 15.875C87.5887 15.875 89.7085 16.7285 91.3426 18.1424C92.9768 16.7285 95.0966 15.875 97.4129 15.875C102.581 15.875 106.771 20.1245 106.771 25.3666C106.771 30.6087 102.581 34.8582 97.4129 34.8582C95.0966 34.8582 92.9768 34.0047 91.3426 32.5908Z" fill="#ED0006"/>
<path fill-rule="evenodd" clip-rule="evenodd" d="M91.3428 32.5908C93.3549 30.8499 94.6308 28.2594 94.6308 25.3666C94.6308 22.4739 93.3549 19.8834 91.3428 18.1424C92.9769 16.7285 95.0967 15.875 97.413 15.875C102.581 15.875 106.771 20.1245 106.771 25.3666C106.771 30.6087 102.581 34.8582 97.413 34.8582C95.0967 34.8582 92.9769 34.0047 91.3428 32.5908Z" fill="#F9A000"/>
<path fill-rule="evenodd" clip-rule="evenodd" d="M91.3427 18.1425C93.3548 19.8834 94.6307 22.4739 94.6307 25.3666C94.6307 28.2593 93.3548 30.8498 91.3427 32.5908C89.3306 30.8498 88.0547 28.2593 88.0547 25.3666C88.0547 22.4739 89.3306 19.8834 91.3427 18.1425Z" fill="#FF5E00"/>
<path d="M138.559 25.6746C138.559 30.9167 134.369 35.1662 129.201 35.1662C124.032 35.1662 119.842 30.9167 119.842 25.6746C119.842 20.4325 124.032 16.183 129.201 16.183C134.369 16.183 138.559 20.4325 138.559 25.6746Z" fill="#ED0006"/>
<path d="M150.7 25.6746C150.7 30.9167 146.51 35.1662 141.341 35.1662C136.173 35.1662 131.983 30.9167 131.983 25.6746C131.983 20.4325 136.173 16.183 141.341 16.183C146.51 16.183 150.7 20.4325 150.7 25.6746Z" fill="#0099DF"/>
<path fill-rule="evenodd" clip-rule="evenodd" d="M135.271 18.4504C137.283 20.1914 138.559 22.7819 138.559 25.6746C138.559 28.5673 137.283 31.1578 135.271 32.8987C133.259 31.1578 131.983 28.5673 131.983 25.6746C131.983 22.7819 133.259 20.1914 135.271 18.4504Z" fill="#6C6BBD"/>
</svg>
