<svg width="116" height="60" viewBox="0 0 116 60" fill="none" xmlns="http://www.w3.org/2000/svg">
<path d="M42.4346 14.5332L44.711 17.2981V29.8603H47.8446V14.5332H44.711H42.4346Z" fill="white"/>
<path d="M0 14.5332L2.27073 17.2981V29.8603H5.41V14.5332H2.27073H0Z" fill="white"/>
<path d="M20.3858 24.4161L12.1374 14.5332H10.2981H8.02734L10.2981 17.2981V29.8603H13.4373V21.0799L20.7037 29.8603H23.5591V14.5332H20.3858V24.4161Z" fill="white"/>
<path d="M112.826 24.4161L104.578 14.5332H102.738H100.468L102.738 17.2981V29.8603H105.878V21.0799L113.144 29.8603H116V14.5332H112.826V24.4161Z" fill="white"/>
<path d="M78.9024 20.7486H71.7269V14.5332H68.5479V29.8603H71.7212V23.6506H72.3683H78.9024V29.8603H82.0757V14.5332H78.9024V20.7486Z" fill="white"/>
<path d="M61.5307 26.4383C60.8438 26.7924 60.0774 26.9695 59.2486 26.9695C58.5787 26.9695 57.9316 26.8496 57.3355 26.6096C56.7338 26.3697 56.1888 26.0327 55.7233 25.6099C55.2635 25.1929 54.8945 24.6845 54.6277 24.1075C54.3608 23.5305 54.2303 22.8221 54.2303 22.1481C54.2303 21.474 54.3608 20.7656 54.6277 20.1886C54.8945 19.6059 55.2635 19.1032 55.7233 18.6862C56.1888 18.2635 56.7338 17.9264 57.3355 17.6865C57.9372 17.4465 58.5787 17.3266 59.2486 17.3266C60.0774 17.3266 60.8438 17.5037 61.5307 17.8579C62.1778 18.1892 62.7341 18.6519 63.194 19.2118L65.7088 17.1895L65.4193 16.8639C64.6529 16.0127 63.7276 15.3329 62.6717 14.8473C61.6101 14.356 60.4577 14.1104 59.2315 14.1104C58.0905 14.1104 57.0119 14.3217 56.0242 14.7445C55.0421 15.1615 54.1735 15.7499 53.4469 16.4811C52.7146 17.218 52.1355 18.0921 51.7211 19.0861C51.3238 20.0344 51.0967 21.0627 51.0967 22.1423C51.0967 23.222 51.3238 24.2503 51.7211 25.1986C52.1355 26.1926 52.7202 27.0724 53.4469 27.8036C54.1792 28.5348 55.0477 29.1232 56.0242 29.5402C57.0119 29.963 58.0905 30.1743 59.2315 30.1743C60.4577 30.1743 61.6101 29.9287 62.6717 29.4374C63.7276 28.9518 64.6529 28.272 65.4193 27.4208L65.7088 27.0952L63.194 25.0729C62.7341 25.6328 62.1778 26.0955 61.5307 26.4268V26.4383Z" fill="white"/>
<path d="M31.7505 26.6497V23.9591V23.6506H37.5238V20.7486H31.7505V20.6457V17.7494V17.4352H31.8584H39.6186V14.5332H30.1553H28.5715H26.3008L28.5715 17.2981V29.8603H30.1553V29.866H32.0117H40.4531V26.9639H31.7505V26.6497Z" fill="white"/>
<path d="M90.148 26.6497V23.9591V23.6506H95.927V20.7486H90.148V20.6457V17.7494V17.4352H90.2615H98.0217V14.5332H88.5585H86.9747H84.6982L86.9747 17.2981V29.8603H88.5585V29.866H90.4091H98.8562V26.9639H90.148V26.6497Z" fill="white"/>
<path d="M6.57423 42.7764H2.95242L2.28255 44.5587H0.136719L3.53145 36.4468H5.99519L9.38993 44.5587H7.24409L6.57423 42.7764ZM6.04061 41.3711L5.26856 39.326C5.03013 38.7661 4.88253 38.3891 4.78035 37.8635H4.74629C4.64411 38.3891 4.49651 38.7661 4.25809 39.326L3.48604 41.3711H6.04061Z" fill="white"/>
<path d="M14.1357 36.4409V41.2395C14.1357 42.3592 14.8169 43.1247 16.0431 43.1247C17.2693 43.1247 17.9392 42.3592 17.9392 41.2395V36.4409H20.0055V41.3881C20.0055 43.4332 18.5636 44.7814 16.0431 44.7814C13.5226 44.7814 12.0693 43.4332 12.0693 41.3767V36.4409H14.1357Z" fill="white"/>
<path d="M23.3545 40.5256C23.3545 37.9549 25.1484 36.2183 27.9073 36.2183C30.2007 36.2183 31.7448 37.3608 32.0968 39.1888L29.985 39.5659C29.7806 38.469 29.0427 37.8521 27.8732 37.8521C26.3973 37.8521 25.5003 38.8689 25.5003 40.5028C25.5003 42.1366 26.4086 43.142 27.9073 43.142C29.0427 43.142 29.7806 42.5479 30.0191 41.4853L32.1081 41.9423C31.6086 43.7133 30.1213 44.7872 27.8619 44.7872C25.0235 44.7872 23.3545 43.1077 23.3545 40.5256Z" fill="white"/>
<path d="M42.2017 38.0747H39.4314V44.5529H37.365V38.0747H34.5947V36.4409H42.2017V38.0747Z" fill="white"/>
<path d="M45.4941 44.5587V36.4468H47.5491V44.5587H45.4941Z" fill="white"/>
<path d="M51.0342 40.5028C51.0342 37.8864 52.8394 36.2183 55.6097 36.2183C58.38 36.2183 60.1852 37.8864 60.1852 40.5028C60.1852 43.1191 58.3913 44.7872 55.6097 44.7872C52.8281 44.7872 51.0342 43.1077 51.0342 40.5028ZM58.0394 40.5028C58.0394 38.8461 57.1084 37.8064 55.6097 37.8064C54.111 37.8064 53.1914 38.8461 53.1914 40.5028C53.1914 42.1594 54.1224 43.1991 55.6097 43.1991C57.097 43.1991 58.0394 42.1594 58.0394 40.5028Z" fill="white"/>
<path d="M63.6826 36.4409H65.9306L69.2118 41.0682C69.4276 41.3995 69.6319 41.7537 69.7568 42.0622H69.7909C69.7909 41.7194 69.7795 41.3652 69.7795 40.9768V36.4409H71.6642V44.5529H69.5297L66.135 39.8799C65.9306 39.56 65.7036 39.1944 65.59 38.9088H65.556C65.556 39.263 65.5673 39.6172 65.5673 40.0056V44.5529H63.6826V36.4409Z" fill="white"/>
<path d="M82.4842 43.062V44.5587H75.7969V36.4468H82.4047V37.9435H77.8519V39.703H82.2117V41.1426H77.8519V43.062H82.4842Z" fill="white"/>
<path d="M92.9978 43.062V44.5587H86.3105V36.4468H92.9184V37.9435H88.3656V39.703H92.7253V41.1426H88.3656V43.062H92.9978Z" fill="white"/>
<path d="M100.536 41.5425H98.8782V44.5587H96.8232V36.4468H101.183C103.454 36.4468 104.283 37.5893 104.283 38.9718C104.283 39.9315 103.794 40.8798 102.602 41.2683L104.532 44.5587H102.25L100.536 41.5425ZM98.8782 40.1714H100.74C101.739 40.1714 102.125 39.6573 102.125 38.9946C102.125 38.332 101.751 37.8749 100.74 37.8749H98.8782V40.1714Z" fill="white"/>
<path d="M106.929 42.8221L108.439 41.7595C108.961 42.6393 109.892 43.2334 111.209 43.2334C112.265 43.2334 112.912 42.9363 112.912 42.2965C112.912 41.7367 112.56 41.5196 111.675 41.3711L110.017 41.1311C108.371 40.8569 107.496 40.1029 107.496 38.6861C107.496 37.1551 108.859 36.2183 111.13 36.2183C112.833 36.2183 114.184 36.7552 114.944 37.8635L113.605 38.9832C113.116 38.1834 112.197 37.715 111.016 37.715C110.04 37.715 109.472 38.0235 109.472 38.5604C109.472 39.0974 109.801 39.3145 110.732 39.463L112.344 39.7144C114.116 39.9886 114.944 40.6627 114.944 42.1023C114.944 43.7475 113.559 44.7872 111.118 44.7872C109.097 44.7872 107.599 44.0217 106.929 42.8221Z" fill="white"/>
</svg>
