<svg width="195" height="50" viewBox="0 0 195 50" fill="none" xmlns="http://www.w3.org/2000/svg">
<g clip-path="url(#clip0_410_143)">
<path d="M7.08789 34.7478V0L31.1249 15.295L55.1627 0V34.7478L37.127 46.2339V39.6557L49.2705 32.0167V10.3071L31.1249 21.8668L12.9793 10.3071V32.0167L25.2889 39.7258V32.1979L19.2982 28.4018V21.8951L31.1249 29.418V50.0074L7.08789 34.7478Z" fill="white"/>
</g>
<g clip-path="url(#clip1_410_143)">
<path d="M168.757 18.1691L165.362 21.6174V27.6645H168.529V24.4798H175.849V27.6645H179.018V18.1665L168.757 18.1691ZM175.853 22.9282H168.529V21.6646L170.454 19.7181H175.849L175.853 22.9282Z" fill="white"/>
<path d="M191.831 18.1688V23.9038L182.062 17.6401V27.6668H185.232V22.0019L195.001 28.2655V18.1688H191.831Z" fill="white"/>
<path d="M147.168 17.6416V27.667H150.338V22.6008L154.746 26.2581L159.152 22.6008V27.667H162.322V17.6416L154.746 23.7957L147.168 17.6416Z" fill="white"/>
<path d="M115.354 19.718V18.1689H103.304V27.6644H115.354V26.1154H106.473V23.695H112.809V22.146H106.473V19.7103L115.354 19.718Z" fill="white"/>
<path d="M121.564 26.1179V18.1689H118.394V27.6644H129.388V26.1154L121.564 26.1179Z" fill="white"/>
<path d="M144.562 18.1689H131.996V27.6644H135.166V24.4797H142.226V22.9307H135.166V19.7205H144.562V18.1689Z" fill="white"/>
<path d="M93.5875 22.1434V23.6937H97.093V26.1179H90.169V19.7193H100.263V18.1689H87V27.667H100.263V22.1434H93.5875Z" fill="white"/>
</g>
<defs>
<clipPath id="clip0_410_143">
<rect width="63" height="50" fill="white"/>
</clipPath>
<clipPath id="clip1_410_143">
<rect width="108" height="25" fill="white" transform="translate(87 11)"/>
</clipPath>
</defs>
</svg>
