<svg width="92" height="103" viewBox="0 0 92 103" fill="none" xmlns="http://www.w3.org/2000/svg">
<path d="M55.0101 15.9555C65.595 10.5193 74.9247 9.4617 80.062 14.1095C89.4503 22.6039 81.2801 46.9376 61.8138 68.4601C42.3469 89.9827 18.9559 100.543 9.5676 92.0491C0.178076 83.5548 8.34826 59.2217 27.8152 37.6992C36.6301 27.9533 46.25 20.4549 55.0101 15.9555Z" stroke="white" stroke-linecap="round" stroke-linejoin="round"/>
<path d="M6.67655 50.3875L5.47876 50.3555V48.9179C6.46901 48.9074 7.28129 48.7793 7.91497 48.5342C8.54866 48.2891 9.23531 47.7729 9.97553 46.9845C10.7158 46.1967 11.0859 45.2593 11.0859 44.1728C11.0859 43.0863 10.7028 42.1463 9.9355 41.3851C9.1688 40.6238 8.24198 40.2425 7.15627 40.2425C6.07057 40.2425 5.15422 40.6207 4.37705 41.377C3.95089 41.8137 3.63682 42.3034 3.43483 42.8467L2.06092 42.3034C2.29493 41.5581 2.70507 40.9028 3.29073 40.338C4.36596 39.273 5.65489 38.7402 7.15627 38.7402C8.65766 38.7402 9.96999 39.2755 11.0298 40.346C12.0891 41.4165 12.6193 42.6921 12.6193 44.1722C12.6193 45.6522 12.2147 46.8749 11.4055 47.7427C10.5963 48.6112 9.84005 49.1883 9.13739 49.476C10.6708 49.9872 11.9431 50.786 12.9549 51.8726C14.4138 53.4383 15.1436 55.2707 15.1436 57.3685C15.1436 59.4664 14.4009 61.2772 12.9155 62.7684C11.4301 64.2596 9.63313 65.0055 7.52454 65.0055C5.41595 65.0055 3.63189 64.2547 2.14159 62.753C0.95982 61.56 0.246076 60.1649 0.000976562 58.5671L1.45433 58.0399C1.60336 59.4565 2.18901 60.6761 3.21128 61.6985C4.41461 62.8916 5.85195 63.4878 7.52454 63.4878C9.19713 63.4878 10.6609 62.8916 11.8532 61.6985C13.0454 60.5055 13.6422 59.0623 13.6422 57.3691C13.6422 55.6759 13.0614 54.2113 11.9012 52.9437C10.7404 51.6761 8.99945 50.8242 6.67778 50.3875H6.67655Z" fill="white"/>
<path d="M21.8996 49.6366C23.5075 48.2415 25.403 47.5436 27.5862 47.5436C30.0144 47.5436 32.0829 48.401 33.7918 50.1158C35.5008 51.8305 36.3555 53.9019 36.3555 56.3305C36.3555 58.7592 35.5008 60.8145 33.7918 62.5293C32.0829 64.2441 30.0137 65.1014 27.5862 65.1014C25.1586 65.1014 23.1029 64.2441 21.3885 62.5293C19.7374 60.8786 18.8808 58.9027 18.8168 56.6022H18.7207C18.8272 52.8425 19.7325 49.7696 21.4365 47.3835C23.1405 44.998 25.2491 42.3987 27.7623 39.587C27.9113 39.417 28.0548 39.2513 28.1934 39.0918H30.1745C29.9614 39.3579 29.7379 39.6246 29.5038 39.8907C26.7031 43.0221 24.4824 45.7544 22.8424 48.0869C22.4908 48.5772 22.1767 49.0933 21.9002 49.6366H21.8996ZM22.4588 51.2023C21.0424 52.6189 20.3342 54.3288 20.3342 56.3305C20.3342 58.3323 21.0424 60.0397 22.4588 61.4508C23.8752 62.8625 25.5841 63.5678 27.5862 63.5678C29.5882 63.5678 31.2971 62.8625 32.7135 61.4508C34.1299 60.0397 34.8381 58.3329 34.8381 56.3305C34.8381 54.3281 34.1299 52.6189 32.7135 51.2023C31.2971 49.7856 29.5882 49.0773 27.5862 49.0773C25.5841 49.0773 23.8746 49.7856 22.4588 51.2023Z" fill="white"/>
<path d="M56.2761 56.3313C56.2761 58.7494 55.4213 60.8153 53.7124 62.53C52.0035 64.2448 49.9349 65.1022 47.5067 65.1022C45.0785 65.1022 43.0235 64.2448 41.309 62.53C39.5945 60.8153 38.7373 58.7488 38.7373 56.3313V47.8634C38.7373 45.4459 39.5945 43.3794 41.309 41.6647C43.0235 39.9499 45.0896 39.0925 47.5067 39.0925C49.9238 39.0925 52.0035 39.9499 53.7124 41.6647C55.4213 43.3794 56.2761 45.4459 56.2761 47.8634V56.3313ZM54.7587 47.8634C54.7587 45.861 54.0505 44.1543 52.6341 42.7432C51.2177 41.3321 49.5087 40.6262 47.5067 40.6262C45.5046 40.6262 43.7951 41.3321 42.3793 42.7432C40.9629 44.1549 40.2547 45.861 40.2547 47.8634V56.3313C40.2547 58.3337 40.9629 60.0404 42.3793 61.4515C43.7957 62.8633 45.5046 63.5685 47.5067 63.5685C49.5087 63.5685 51.2177 62.8633 52.6341 61.4515C54.0505 60.0404 54.7587 58.3337 54.7587 56.3313V47.8634Z" fill="white"/>
<path d="M59.6425 38.7409C61.3597 38.7409 62.7518 37.3486 62.7518 35.6311C62.7518 33.9136 61.3597 32.5212 59.6425 32.5212C57.9253 32.5212 56.5332 33.9136 56.5332 35.6311C56.5332 37.3486 57.9253 38.7409 59.6425 38.7409Z" stroke="white" stroke-linecap="round" stroke-linejoin="round"/>
<path d="M35.7657 22.4734L33.3467 31.6582L43.5497 29.5511" stroke="white" stroke-linecap="round" stroke-linejoin="round"/>
</svg>
