<svg width="85" height="69" viewBox="0 0 85 69" fill="none" xmlns="http://www.w3.org/2000/svg">
<path d="M22.1 68.1C15.9667 68.1 10.9 66.5 6.9 63.3C2.5 59.7667 0.3 55.0333 0.3 49.1C0.3 47.1667 0.533333 45.4667 1 44C2.73333 37.8 6.16667 32.8 11.3 29C16.1667 25.4667 21.9667 23.3333 28.7 22.6C26.6333 20.4 25.6 17.9667 25.6 15.3C25.6 10.8333 27.6667 7.23333 31.8 4.5C35.4 2.1 39.5333 0.899995 44.2 0.899995C51.9333 0.899995 55.8 3.56666 55.8 8.9C55.8 10.9667 55 12.8 53.4 14.4C51.8 16 49.9667 16.8 47.9 16.8C46.7667 16.8 45.7667 16.5667 44.9 16.1C43.7667 15.5 43.2 14.7 43.2 13.7C43.2 13.5 43.2667 13.2 43.4 12.8C43.4 12.4 43.5333 12.2 43.8 12.2C44 12.2 44.1 12.3333 44.1 12.6C44.1 12.8 44.0667 13 44 13.2C43.8667 13.4667 43.8 13.6667 43.8 13.8C43.8 15.0667 44.4667 15.7 45.8 15.7C47.8 15.7 49.6 15.1 51.2 13.9C52.9333 12.5667 53.8 10.9 53.8 8.9C53.8 6.7 52.9 4.96666 51.1 3.69999C49.5667 2.56666 47.6333 2 45.3 2C40.8333 2 37.0333 3.36667 33.9 6.1C30.6333 8.96666 29 12.6 29 17C29 19.2 29.5333 21.0333 30.6 22.5C31 22.5 31.4 22.5 31.8 22.5C32.2 22.4333 32.6 22.4 33 22.4C40.4 22.4 44.1 23.4333 44.1 25.5C44.1 26.8333 42.9 27.5 40.5 27.5C36.7667 27.5 33.4 26.4 30.4 24.2C17.5333 26.5333 9.66667 33.1667 6.8 44.1C6.33333 45.7 6.1 47.5 6.1 49.5C6.1 54.5667 7.73333 58.7333 11 62C14.2667 65.0667 18.5 66.6 23.7 66.6C29.9667 66.6 35.7333 64.6 41 60.6C46.6667 56.2 49.5 50.9667 49.5 44.9C49.5 39.0333 46.0667 36.1 39.2 36.1C37.1333 36.1 35.0667 36.3333 33 36.8C31 37.2667 28.9667 38 26.9 39C25.7 39.5333 24.6 40.2 23.6 41C22.6 41.7333 21.6667 42.5667 20.8 43.5C18.8667 45.8333 17.9 48.1333 17.9 50.4C17.9 52.4 18.5667 54.0667 19.9 55.4C21.2333 56.7333 22.9 57.4 24.9 57.4C27.1 57.4 29.0333 56.9 30.7 55.9C32.7 54.7667 33.7 53.2 33.7 51.2C33.7 50.6 33.9 50.3 34.3 50.3C34.8333 50.3 35.1 50.8 35.1 51.8C35.1 54 33.9333 55.8 31.6 57.2C29.7333 58.3333 27.5667 58.9 25.1 58.9C22.1 58.9 19.6667 57.7667 17.8 55.5C16 53.3 15.1 50.7333 15.1 47.8C15.1 41.9333 17.8333 37.7 23.3 35.1C26.3 33.7 30.7667 33 36.7 33C40.1667 33 45.3 33.3 52.1 33.9C58.9 34.5 64 34.8 67.4 34.8C78 34.8 83.3 32.4667 83.3 27.8C83.3 25.2 81.8667 23.6667 79 23.2C78.4 23.0667 78.1 22.7667 78.1 22.3C78.1 21.7 78.4 21.4 79 21.4C80.5333 21.4 81.9667 22.0667 83.3 23.4C84.4333 24.7333 85 26.2 85 27.8C85 27.9333 85 28.1 85 28.3C85 28.5 84.9667 28.6667 84.9 28.8C83.8333 34 78.0333 36.6 67.5 36.6C65.2333 36.6 62.0333 36.5 57.9 36.3C55.6333 36.1667 53.7 36.0667 52.1 36C50.5 35.9333 49.2 35.9 48.2 35.9C51.6 37.5 53.3 40.6 53.3 45.2C53.3 52.0667 49.7 57.7667 42.5 62.3C36.1667 66.1667 29.3667 68.1 22.1 68.1ZM39 26.5C41.0667 26.5 42.1 26.0667 42.1 25.2C42.1 24.0667 40.6 23.5 37.6 23.5C36.6667 23.5 35.7 23.5333 34.7 23.6C33.7667 23.6667 32.8333 23.7667 31.9 23.9C33.9667 25.6333 36.3333 26.5 39 26.5Z" fill="#FF7426"/>
</svg>
