<svg width="106" height="113" viewBox="0 0 106 113" fill="none" xmlns="http://www.w3.org/2000/svg">
<g clip-path="url(#clip0_180_97)">
<path d="M91.5311 55.4607V36.969H80.4718C79.6989 33.9796 78.5385 31.1469 77.0556 28.5184L77.0859 28.5493L85.0598 20.6132L71.9218 7.53755L64.1016 15.3207L64.1402 15.3606C61.5188 13.8139 58.6824 12.5897 55.6841 11.7497H55.7257V0.526611H37.1459V11.5327C34.146 12.3004 31.3021 13.4531 28.6633 14.9259L28.6867 14.9033L20.7128 6.96724L7.57486 20.0429L15.3959 27.826L15.4148 27.808C13.8691 30.4064 12.6503 33.2195 11.8078 36.1893V36.1622H0.53125V54.6538H11.5898C12.3612 57.6395 13.5193 60.4699 15 63.0962L14.9773 63.0728L7.00334 71.0089L20.1413 84.0846L27.9616 76.3014L27.9434 76.2826C30.5542 77.821 33.3807 79.0339 36.3647 79.8724H36.3374V91.0955H54.9173V80.0894C57.9171 79.3217 60.7611 78.169 63.3999 76.6962L63.3764 76.7188L71.3503 84.6549L84.4883 71.5792L76.6673 63.7961L76.6484 63.8142C78.1941 61.2158 79.4128 58.4027 80.2553 55.4328V55.46H91.5319L91.5311 55.4607Z" stroke="white" stroke-linecap="round" stroke-linejoin="round"/>
<path d="M46.0307 69.1194C58.9643 69.1194 69.4491 58.6844 69.4491 45.8122C69.4491 32.9399 58.9643 22.5049 46.0307 22.5049C33.0971 22.5049 22.6123 32.9399 22.6123 45.8122C22.6123 58.6844 33.0971 69.1194 46.0307 69.1194Z" stroke="white" stroke-linecap="round" stroke-linejoin="round"/>
<path d="M106 30.6708H55.9355V113.001H106V30.6708Z" fill="black"/>
<path d="M93.5309 35.8036H65.1726C63.3147 35.8036 61.8086 37.3025 61.8086 39.1516V101.237C61.8086 103.086 63.3147 104.585 65.1726 104.585H93.5309C95.3888 104.585 96.8949 103.086 96.8949 101.237V39.1516C96.8949 37.3025 95.3888 35.8036 93.5309 35.8036Z" stroke="white" stroke-linecap="round" stroke-linejoin="round"/>
<path d="M61.8086 44.6897H96.8949" stroke="white" stroke-linecap="round" stroke-linejoin="round"/>
<path d="M61.8086 94.9679H96.8949" stroke="white" stroke-linecap="round" stroke-linejoin="round"/>
<path d="M74.9736 99.8459H83.7303" stroke="white" stroke-linecap="round" stroke-linejoin="round"/>
<path d="M73.5893 41.9307C74.479 41.9307 75.2002 41.213 75.2002 40.3276C75.2002 39.4421 74.479 38.7244 73.5893 38.7244C72.6997 38.7244 71.9785 39.4421 71.9785 40.3276C71.9785 41.213 72.6997 41.9307 73.5893 41.9307Z" stroke="white" stroke-linecap="round" stroke-linejoin="round"/>
<path d="M78.2074 41.9308H85.6847C86.2596 41.9308 86.7256 41.467 86.7256 40.8949V39.9366C86.7256 39.3645 86.2596 38.9007 85.6847 38.9007H78.2074C77.6326 38.9007 77.1666 39.3645 77.1666 39.9366V40.8949C77.1666 41.467 77.6326 41.9308 78.2074 41.9308Z" stroke="white" stroke-linecap="round" stroke-linejoin="round"/>
</g>
<defs>
<clipPath id="clip0_180_97">
<rect width="106" height="113" fill="white"/>
</clipPath>
</defs>
</svg>
