<svg width="61" height="82" viewBox="0 0 61 82" fill="none" xmlns="http://www.w3.org/2000/svg">
<g clip-path="url(#clip0_474_457)">
<path d="M25.0946 73.9608H4.66852C3.21113 73.9608 2.0293 72.7809 2.0293 71.326V4.66449C2.0293 3.20952 3.21113 2.02966 4.66852 2.02966H39.2866C40.744 2.02966 41.9258 3.20952 41.9258 4.66449V40.5856" stroke="white" stroke-linecap="round" stroke-linejoin="round"/>
<path d="M21.9776 6.11763C22.6982 6.11763 23.2824 5.53444 23.2824 4.81504C23.2824 4.09564 22.6982 3.51245 21.9776 3.51245C21.257 3.51245 20.6729 4.09564 20.6729 4.81504C20.6729 5.53444 21.257 6.11763 21.9776 6.11763Z" stroke="white" stroke-linecap="round" stroke-linejoin="round"/>
<path d="M9.22754 2.02966H35.4297V3.83503C35.4297 6.09988 33.5881 7.93845 31.3194 7.93845H13.3378C11.0692 7.93845 9.22754 6.09988 9.22754 3.83503V2.02966Z" stroke="white" stroke-linecap="round" stroke-linejoin="round"/>
<path d="M23.7687 69.6659C23.2437 70.5024 22.3125 71.0586 21.2507 71.0586C19.611 71.0586 18.2812 69.7311 18.2812 68.0941C18.2812 66.4571 19.611 65.1296 21.2507 65.1296C21.8297 65.1296 22.3695 65.2951 22.8262 65.5808" stroke="white" stroke-linecap="round" stroke-linejoin="round"/>
<path d="M60.9708 66.6095V59.6762H56.8367C56.5475 58.5556 56.114 57.4932 55.5599 56.5078L55.5712 56.5196L58.5519 53.5439L53.641 48.6412L50.7179 51.5595L50.7322 51.5743C49.7523 50.9944 48.6922 50.5355 47.5716 50.2207H47.587V46.0129H40.6421V50.1395C39.5209 50.4276 38.4578 50.8593 37.4714 51.4118L37.4803 51.4035L34.4996 48.4278L29.5887 53.3304L32.5118 56.2487L32.519 56.2416C31.9411 57.2157 31.4856 58.2704 31.1708 59.3839V59.3738H26.9561V66.3071H31.0895C31.3781 67.4265 31.8111 68.4878 32.364 69.4726L32.3556 69.4637L29.3749 72.4394L34.2858 77.3421L37.2089 74.4238L37.2017 74.4167C38.1775 74.9936 39.234 75.4484 40.3493 75.7626H40.3392V79.9704H47.2841V75.8438C48.4054 75.5557 49.4684 75.1241 50.4549 74.5715L50.4459 74.5798L53.4267 77.5555L58.3375 72.6529L55.4144 69.7346L55.4073 69.7418C55.9851 68.7676 56.4406 67.7129 56.7554 66.5994V66.6095H60.9702H60.9708Z" stroke="white" stroke-linecap="round" stroke-linejoin="round"/>
<path d="M43.9632 71.7303C48.7975 71.7303 52.7165 67.8178 52.7165 62.9916C52.7165 58.1654 48.7975 54.2529 43.9632 54.2529C39.1289 54.2529 35.21 58.1654 35.21 62.9916C35.21 67.8178 39.1289 71.7303 43.9632 71.7303Z" stroke="white" stroke-linecap="round" stroke-linejoin="round"/>
</g>
<defs>
<clipPath id="clip0_474_457">
<rect width="61" height="82" fill="white"/>
</clipPath>
</defs>
</svg>
