<svg width="104" height="109" viewBox="0 0 104 109" fill="none" xmlns="http://www.w3.org/2000/svg">
<g clip-path="url(#clip0_180_58)">
<path d="M68.4516 16.9178H68.454L63.6214 14.1766C62.5457 13.6384 61.8627 12.5128 61.8627 11.2788V8.65895C61.8627 7.80976 61.3159 7.10037 60.5692 6.86337V2.46882C60.5692 1.41638 59.7432 0.562378 58.7234 0.562378C57.7037 0.562378 56.8777 1.41558 56.8777 2.46882V6.79588C55.9777 6.91318 55.2793 7.69729 55.2793 8.65895V11.3158C55.2793 12.5305 54.6173 13.6416 53.5681 14.1895L48.5488 17.1524C48.2952 17.2906 48.0463 17.4368 47.8029 17.5926L47.7577 17.6192H47.7632C44.2925 19.8606 41.9824 23.8414 41.9824 28.3806V84.6227C41.9824 86.681 43.5972 88.3488 45.59 88.3488H45.5441V91.7673C45.5441 94.1172 47.3891 96.0228 49.6642 96.0228H67.7874C70.0625 96.0228 71.9075 94.118 71.9075 91.7673V88.3488H71.8616C73.8544 88.3488 75.4691 86.6802 75.4691 84.6227V28.3814C75.4691 23.3208 72.5998 18.9536 68.4501 16.917L68.4516 16.9178Z" stroke="white" stroke-linecap="round" stroke-linejoin="round"/>
<path d="M48.9775 108.438V95.855" stroke="white" stroke-linecap="round" stroke-linejoin="round"/>
<path d="M53.624 108.438V96.0237" stroke="white" stroke-linecap="round" stroke-linejoin="round"/>
<path d="M58.7266 108.438V96.0237" stroke="white" stroke-linecap="round" stroke-linejoin="round"/>
<path d="M63.8301 108.438V96.0237" stroke="white" stroke-linecap="round" stroke-linejoin="round"/>
<path d="M68.4766 108.438V95.855" stroke="white" stroke-linecap="round" stroke-linejoin="round"/>
<path d="M103.999 52.8655H58.7266V92.4132H103.999V52.8655Z" fill="black"/>
<path d="M66.3935 56.4688V85.901H64.7904V59.3754H63.0986L65.289 56.4688H66.3935Z" fill="white"/>
<path d="M80.7303 68.6095C82.5232 67.0028 84.6365 66.1994 87.0703 66.1994C89.7771 66.1994 92.0833 67.1867 93.989 69.1607C95.8947 71.1354 96.8475 73.5207 96.8475 76.3165C96.8475 79.1123 95.8947 81.4799 93.989 83.4538C92.0833 85.4285 89.7771 86.4151 87.0703 86.4151C84.3635 86.4151 82.072 85.4277 80.1601 83.4538C78.3198 81.553 77.3639 79.2778 77.2931 76.629H77.1865C77.3048 72.3003 78.3144 68.7622 80.2138 66.0154C82.1132 63.2686 84.4638 60.276 87.2663 57.0383C87.4327 56.8423 87.593 56.6519 87.747 56.4679H89.9552C89.7172 56.7748 89.4683 57.0809 89.207 57.3878C86.084 60.9934 83.609 64.1387 81.7803 66.8244C81.3883 67.3884 81.0383 67.9829 80.7295 68.6087L80.7303 68.6095ZM81.3533 70.4123C79.7743 72.0432 78.9848 74.0115 78.9848 76.3173C78.9848 78.623 79.7743 80.5881 81.3533 82.2125C82.9323 83.8378 84.8379 84.65 87.0703 84.65C89.3026 84.65 91.2083 83.8378 92.7873 82.2125C94.3662 80.5881 95.1557 78.623 95.1557 76.3173C95.1557 74.0115 94.3662 72.0432 92.7873 70.4123C91.2083 68.7815 89.3026 67.966 87.0703 67.966C84.8379 67.966 82.9323 68.7815 81.3533 70.4123Z" fill="white"/>
<path d="M27.0134 16.9178H27.0157L22.1831 14.1766C21.1074 13.6384 20.4244 12.5128 20.4244 11.2788V8.65895C20.4244 7.80976 19.8776 7.10037 19.1309 6.86337V2.46882C19.1309 1.41638 18.3049 0.562378 17.2852 0.562378C16.2654 0.562378 15.4394 1.41558 15.4394 2.46882V6.79588C14.5395 6.91318 13.841 7.69729 13.841 8.65895V11.3158C13.841 12.5305 13.1791 13.6416 12.1298 14.1895L7.1105 17.1524C6.85693 17.2906 6.60803 17.4368 6.36457 17.5926L6.31946 17.6192H6.3249C2.85505 19.8614 0.544922 23.8422 0.544922 28.3814V84.6235C0.544922 86.6818 2.15968 88.3497 4.15245 88.3497H4.10656V91.7681C4.10656 94.118 5.95155 96.0236 8.22667 96.0236H26.3499C28.625 96.0236 30.47 94.1188 30.47 91.7681V88.3497H30.4241C32.4169 88.3497 34.0316 86.681 34.0316 84.6235V28.3814C34.0316 23.3208 31.1623 18.9536 27.0126 16.917L27.0134 16.9178Z" stroke="white" stroke-linecap="round" stroke-linejoin="round"/>
<path d="M7.53906 108.438V95.855" stroke="white" stroke-linecap="round" stroke-linejoin="round"/>
<path d="M12.1855 108.438V96.0237" stroke="white" stroke-linecap="round" stroke-linejoin="round"/>
<path d="M17.2881 108.438V96.0237" stroke="white" stroke-linecap="round" stroke-linejoin="round"/>
<path d="M22.3906 108.438V96.0237" stroke="white" stroke-linecap="round" stroke-linejoin="round"/>
<path d="M27.0381 108.438V95.855" stroke="white" stroke-linecap="round" stroke-linejoin="round"/>
</g>
<defs>
<clipPath id="clip0_180_58">
<rect width="104" height="109" fill="white"/>
</clipPath>
</defs>
</svg>
