<svg width="107" height="107" viewBox="0 0 107 107" fill="none" xmlns="http://www.w3.org/2000/svg">
<g clip-path="url(#clip0_180_74)">
<path d="M53.5006 106.377C82.7035 106.377 106.377 82.7033 106.377 53.5004C106.377 24.2975 82.7035 0.623901 53.5006 0.623901C24.2977 0.623901 0.624023 24.2975 0.624023 53.5004C0.624023 82.7033 24.2977 106.377 53.5006 106.377Z" stroke="white" stroke-linecap="round" stroke-linejoin="round"/>
<path d="M78.1472 57.6031C85.7963 69.2837 88.4372 79.7796 83.9308 84.2397C77.4332 90.6723 58.5323 82.1158 41.7152 65.1275C24.8981 48.1393 16.5332 29.1537 23.0308 22.7211C27.0916 18.7005 35.9983 20.5356 46.2118 26.625" stroke="white" stroke-linecap="round" stroke-linejoin="round"/>
<path d="M38.6836 46.255C39.8164 45.0045 40.9974 43.7593 42.2221 42.5249C59.0597 25.5572 77.9695 17.022 84.46 23.4626C88.5163 27.4877 86.7614 36.4097 80.7638 46.6775" stroke="white" stroke-linecap="round" stroke-linejoin="round"/>
<path d="M49.1811 78.4694C37.7475 85.9965 27.4842 88.6053 23.0419 84.1969C18.8653 80.0524 20.8502 70.7151 27.2845 60.0631" stroke="white" stroke-linecap="round" stroke-linejoin="round"/>
<path d="M80.7152 46.8032C76.8835 52.8222 71.3494 59.4847 64.7974 65.6017C62.6155 67.6383 60.406 69.543 58.1982 71.3034" stroke="white" stroke-linecap="round" stroke-linejoin="round"/>
<path d="M9.3584 8.5636L23.2654 22.6284" stroke="white" stroke-linecap="round" stroke-linejoin="round"/>
<path d="M84.3691 83.7406L98.2761 97.8054" stroke="white" stroke-linecap="round" stroke-linejoin="round"/>
</g>
<defs>
<clipPath id="clip0_180_74">
<rect width="107" height="107" fill="white"/>
</clipPath>
</defs>
</svg>
