<svg width="93" height="81" viewBox="0 0 93 81" fill="none" xmlns="http://www.w3.org/2000/svg">
<g clip-path="url(#clip0_474_444)">
<path d="M53.0622 61.7328H7.85717C5.19396 61.7328 3.03516 59.5809 3.03516 56.9262V6.84194C3.03516 4.18728 5.19396 2.0354 7.85717 2.0354H81.4544C84.1176 2.0354 86.2764 4.18728 86.2764 6.84194V34.8368" stroke="white" stroke-linecap="round" stroke-linejoin="round"/>
<path d="M3.03516 50.1559H51.7476" stroke="white" stroke-linecap="round" stroke-linejoin="round"/>
<path d="M64.4285 76.187H24.0901C23.0965 76.187 22.291 76.9899 22.291 77.9804V78.1713C22.291 79.1617 23.0965 79.9646 24.0901 79.9646H64.4285C65.4221 79.9646 66.2276 79.1617 66.2276 78.1713V77.9804C66.2276 76.9899 65.4221 76.187 64.4285 76.187Z" stroke="white" stroke-linecap="round" stroke-linejoin="round"/>
<path d="M36.8645 61.7328C36.8645 61.7328 36.1324 76.1616 29.3232 76.1871" stroke="white" stroke-linecap="round" stroke-linejoin="round"/>
<path d="M53.0625 61.7328C53.0625 61.7328 53.7946 76.1616 60.6038 76.1871" stroke="white" stroke-linecap="round" stroke-linejoin="round"/>
<path d="M58.9746 41.1262H92.9649" stroke="white" stroke-linecap="round" stroke-linejoin="round"/>
<path d="M58.9746 50.1559H92.9649" stroke="white" stroke-linecap="round" stroke-linejoin="round"/>
<path d="M58.9746 59.1855H92.9649" stroke="white" stroke-linecap="round" stroke-linejoin="round"/>
<path d="M71.5212 43.7999C73.0027 43.7999 74.2036 42.6028 74.2036 41.1261C74.2036 39.6495 73.0027 38.4524 71.5212 38.4524C70.0398 38.4524 68.8389 39.6495 68.8389 41.1261C68.8389 42.6028 70.0398 43.7999 71.5212 43.7999Z" fill="white"/>
<path d="M84.904 52.8297C86.3855 52.8297 87.5864 51.6326 87.5864 50.1559C87.5864 48.6793 86.3855 47.4822 84.904 47.4822C83.4226 47.4822 82.2217 48.6793 82.2217 50.1559C82.2217 51.6326 83.4226 52.8297 84.904 52.8297Z" fill="white"/>
<path d="M76.8855 61.8594C78.3669 61.8594 79.5679 60.6623 79.5679 59.1856C79.5679 57.7089 78.3669 56.5118 76.8855 56.5118C75.4041 56.5118 74.2031 57.7089 74.2031 59.1856C74.2031 60.6623 75.4041 61.8594 76.8855 61.8594Z" fill="white"/>
<path d="M44.6564 58.0888C46.0097 58.0888 47.1068 56.9952 47.1068 55.6463C47.1068 54.2973 46.0097 53.2037 44.6564 53.2037C43.3031 53.2037 42.2061 54.2973 42.2061 55.6463C42.2061 56.9952 43.3031 58.0888 44.6564 58.0888Z" stroke="white" stroke-linecap="round" stroke-linejoin="round"/>
</g>
<defs>
<clipPath id="clip0_474_444">
<rect width="93" height="81" fill="white"/>
</clipPath>
</defs>
</svg>
