<svg width="191" height="87" viewBox="0 0 191 87" fill="none" xmlns="http://www.w3.org/2000/svg">
<path d="M93.3864 62.6705V70H92.9318V59.0909H93.3864V60.8239H93.4432C93.6989 60.2557 94.1179 59.8011 94.7003 59.4602C95.2874 59.1193 95.9574 58.9489 96.7102 58.9489C97.4394 58.9489 98.0833 59.1075 98.642 59.4247C99.2008 59.742 99.6387 60.1799 99.956 60.7386C100.273 61.2973 100.432 61.9413 100.432 62.6705V70H99.9773V62.6705C99.9773 61.7045 99.6742 60.9186 99.0682 60.3125C98.4621 59.7064 97.6761 59.4034 96.7102 59.4034C96.0663 59.4034 95.4934 59.5431 94.9915 59.8224C94.4943 60.1018 94.1013 60.4877 93.8125 60.9801C93.5284 61.4725 93.3864 62.036 93.3864 62.6705ZM104.356 70V59.0909H104.81V70H104.356ZM104.583 57.1023C104.46 57.1023 104.353 57.0573 104.263 56.9673C104.174 56.8774 104.129 56.7708 104.129 56.6477C104.129 56.5246 104.174 56.4181 104.263 56.3281C104.353 56.2382 104.46 56.1932 104.583 56.1932C104.706 56.1932 104.813 56.2382 104.903 56.3281C104.993 56.4181 105.038 56.5246 105.038 56.6477C105.038 56.7708 104.993 56.8774 104.903 56.9673C104.813 57.0573 104.706 57.1023 104.583 57.1023ZM108.591 59.0909L111.801 64.1335L115.011 59.0909H115.551L112.071 64.5455L115.551 70H115.011L111.801 64.9574L108.591 70H108.051L111.531 64.5455L108.051 59.0909H108.591ZM118.789 70V59.0909H119.244V70H118.789ZM119.017 57.1023C118.894 57.1023 118.787 57.0573 118.697 56.9673C118.607 56.8774 118.562 56.7708 118.562 56.6477C118.562 56.5246 118.607 56.4181 118.697 56.3281C118.787 56.2382 118.894 56.1932 119.017 56.1932C119.14 56.1932 119.246 56.2382 119.336 56.3281C119.426 56.4181 119.471 56.5246 119.471 56.6477C119.471 56.7708 119.426 56.8774 119.336 56.9673C119.246 57.0573 119.14 57.1023 119.017 57.1023ZM127.257 70.2273C126.305 70.2273 125.472 69.9787 124.757 69.4815C124.047 68.9844 123.495 68.3097 123.102 67.4574C122.709 66.6051 122.513 65.6439 122.513 64.5739C122.513 63.5038 122.709 62.5426 123.102 61.6903C123.5 60.8381 124.04 60.1634 124.722 59.6662C125.403 59.169 126.173 58.9205 127.03 58.9205C127.664 58.9205 128.251 59.0554 128.791 59.3253C129.336 59.5952 129.809 59.9692 130.212 60.4474C130.614 60.9257 130.927 61.4773 131.149 62.1023C131.376 62.7225 131.49 63.3854 131.49 64.0909V64.5455H122.74V64.0909H131.036C131.036 63.215 130.856 62.4219 130.496 61.7116C130.136 60.9967 129.653 60.4285 129.047 60.0071C128.441 59.5857 127.768 59.375 127.03 59.375C126.282 59.375 125.605 59.5975 124.999 60.0426C124.393 60.4877 123.907 61.0937 123.543 61.8608C123.178 62.6278 122.986 63.4943 122.967 64.4602V64.517C122.967 65.4687 123.133 66.3447 123.464 67.1449C123.801 67.9403 124.288 68.5772 124.928 69.0554C125.567 69.5336 126.343 69.7727 127.257 69.7727C127.929 69.7727 128.493 69.6544 128.947 69.4176C129.407 69.1809 129.774 68.9086 130.048 68.6009C130.328 68.2931 130.534 68.0303 130.666 67.8125L131.036 68.0682C130.875 68.3428 130.633 68.6482 130.311 68.9844C129.989 69.3205 129.577 69.6117 129.075 69.858C128.573 70.1042 127.967 70.2273 127.257 70.2273ZM143.743 59.0909V59.5455H139.425V59.0909H143.743ZM141.016 56.4773H141.471V67.6989C141.471 68.125 141.565 68.492 141.755 68.7997C141.944 69.1027 142.195 69.3371 142.507 69.5028C142.82 69.6638 143.156 69.7443 143.516 69.7443C143.653 69.7443 143.779 69.7325 143.892 69.7088C144.011 69.6851 144.132 69.6496 144.255 69.6023L144.397 70.0284C144.255 70.0805 144.115 70.1207 143.978 70.1491C143.84 70.1823 143.686 70.1989 143.516 70.1989C143.071 70.1989 142.657 70.0971 142.273 69.8935C141.894 69.6899 141.589 69.401 141.357 69.027C141.13 68.6529 141.016 68.2102 141.016 67.6989V56.4773ZM154.333 66.4205V59.0909H154.787V70H154.333V68.267H154.276C154.02 68.8352 153.599 69.2898 153.012 69.6307C152.429 69.9716 151.762 70.142 151.009 70.142C150.28 70.142 149.636 69.9834 149.077 69.6662C148.518 69.349 148.08 68.911 147.763 68.3523C147.446 67.7936 147.287 67.1496 147.287 66.4205V59.0909H147.742V66.4205C147.742 67.3864 148.045 68.1723 148.651 68.7784C149.257 69.3845 150.043 69.6875 151.009 69.6875C151.653 69.6875 152.223 69.5478 152.721 69.2685C153.222 68.9891 153.615 68.6032 153.9 68.1108C154.188 67.6184 154.333 67.0549 154.333 66.4205ZM158.995 70V55.4545H159.45V61.875H159.507C159.696 61.2689 159.971 60.7457 160.331 60.3054C160.69 59.8603 161.114 59.5194 161.602 59.2827C162.09 59.0412 162.622 58.9205 163.2 58.9205C164.052 58.9205 164.793 59.169 165.423 59.6662C166.053 60.1634 166.54 60.8381 166.886 61.6903C167.232 62.5426 167.404 63.5038 167.404 64.5739C167.404 65.6487 167.232 66.6122 166.886 67.4645C166.545 68.3168 166.06 68.9915 165.43 69.4886C164.805 69.9811 164.062 70.2273 163.2 70.2273C162.618 70.2273 162.083 70.1065 161.595 69.8651C161.112 69.6236 160.693 69.2827 160.338 68.8423C159.983 68.3973 159.706 67.8741 159.507 67.2727H159.45V70H158.995ZM159.45 64.5739C159.45 65.5587 159.601 66.4441 159.904 67.2301C160.208 68.0114 160.638 68.6316 161.197 69.0909C161.761 69.5455 162.428 69.7727 163.2 69.7727C163.972 69.7727 164.637 69.5455 165.196 69.0909C165.759 68.6316 166.192 68.0114 166.495 67.2301C166.798 66.4441 166.95 65.5587 166.95 64.5739C166.95 63.589 166.796 62.706 166.488 61.9247C166.185 61.1387 165.752 60.5185 165.189 60.0639C164.63 59.6046 163.967 59.375 163.2 59.375C162.433 59.375 161.768 59.6046 161.204 60.0639C160.645 60.5185 160.212 61.1387 159.904 61.9247C159.601 62.706 159.45 63.589 159.45 64.5739ZM174.699 70.2273C173.747 70.2273 172.913 69.9787 172.199 69.4815C171.488 68.9844 170.937 68.3097 170.544 67.4574C170.151 66.6051 169.954 65.6439 169.954 64.5739C169.954 63.5038 170.151 62.5426 170.544 61.6903C170.941 60.8381 171.481 60.1634 172.163 59.6662C172.845 59.169 173.614 58.9205 174.471 58.9205C175.106 58.9205 175.693 59.0554 176.233 59.3253C176.777 59.5952 177.251 59.9692 177.653 60.4474C178.056 60.9257 178.368 61.4773 178.591 62.1023C178.818 62.7225 178.931 63.3854 178.931 64.0909V64.5455H170.181V64.0909H178.477C178.477 63.215 178.297 62.4219 177.937 61.7116C177.577 60.9967 177.094 60.4285 176.488 60.0071C175.882 59.5857 175.21 59.375 174.471 59.375C173.723 59.375 173.046 59.5975 172.44 60.0426C171.834 60.4877 171.349 61.0937 170.984 61.8608C170.619 62.6278 170.428 63.4943 170.409 64.4602V64.517C170.409 65.4687 170.574 66.3447 170.906 67.1449C171.242 67.9403 171.73 68.5772 172.369 69.0554C173.008 69.5336 173.785 69.7727 174.699 69.7727C175.371 69.7727 175.934 69.6544 176.389 69.4176C176.848 69.1809 177.215 68.9086 177.49 68.6009C177.769 68.2931 177.975 68.0303 178.108 67.8125L178.477 68.0682C178.316 68.3428 178.074 68.6482 177.752 68.9844C177.431 69.3205 177.019 69.6117 176.517 69.858C176.015 70.1042 175.409 70.2273 174.699 70.2273ZM188.685 61.392L188.23 61.5057C188.083 61.0322 187.877 60.6392 187.612 60.3267C187.352 60.0095 187.032 59.7727 186.653 59.6165C186.275 59.4555 185.834 59.375 185.332 59.375C184.461 59.375 183.756 59.5975 183.216 60.0426C182.676 60.483 182.406 61.0653 182.406 61.7898C182.406 62.3627 182.589 62.8433 182.953 63.2315C183.322 63.6198 183.879 63.9062 184.622 64.0909L186.327 64.517C187.127 64.7159 187.733 65.0521 188.145 65.5256C188.562 65.9991 188.77 66.572 188.77 67.2443C188.77 67.8362 188.614 68.357 188.301 68.8068C187.993 69.2566 187.567 69.607 187.023 69.858C186.478 70.1042 185.848 70.2273 185.134 70.2273C184.163 70.2273 183.37 69.9905 182.754 69.517C182.139 69.0436 181.739 68.3712 181.554 67.5L182.009 67.3864C182.17 68.1581 182.513 68.75 183.038 69.1619C183.569 69.5691 184.267 69.7727 185.134 69.7727C186.08 69.7727 186.848 69.5407 187.435 69.0767C188.022 68.6127 188.315 68.0019 188.315 67.2443C188.315 66.6809 188.14 66.205 187.79 65.8168C187.439 65.4285 186.914 65.1468 186.213 64.9716L184.509 64.5455C183.67 64.3371 183.034 63.9962 182.598 63.5227C182.167 63.0492 181.952 62.4716 181.952 61.7898C181.952 61.2169 182.094 60.7173 182.378 60.2912C182.667 59.8603 183.064 59.5241 183.571 59.2827C184.082 59.0412 184.67 58.9205 185.332 58.9205C186.175 58.9205 186.878 59.1288 187.442 59.5455C188.005 59.9574 188.42 60.5729 188.685 61.392Z" fill="white"/>
<path d="M96.4545 20.9091V50H95.5455V20.9091H96.4545ZM127.364 20.9091V50H126.455L106.568 22.6136H106.455V50H105.545V20.9091H106.455L126.341 48.2955H126.455V20.9091H127.364ZM146.103 35V35.9091H135.251V35H146.103ZM159.608 20.9091V50H158.699V21.875H158.528L152.278 26.0227V24.9432L158.358 20.9091H159.608ZM177.602 50.3977C176.371 50.3977 175.229 50.1184 174.178 49.5597C173.127 49.0009 172.209 48.1629 171.423 47.0455C170.646 45.9186 170.04 44.5028 169.604 42.7983C169.178 41.0937 168.965 39.1004 168.965 36.8182C168.965 34.858 169.103 32.9167 169.377 30.9943C169.661 29.0625 170.135 27.3059 170.798 25.7244C171.46 24.143 172.37 22.8788 173.525 21.9318C174.68 20.9848 176.134 20.5114 177.886 20.5114C179.325 20.5114 180.58 20.8381 181.65 21.4915C182.72 22.1354 183.567 23.035 184.192 24.1903C184.817 25.3362 185.177 26.6667 185.272 28.1818H184.363C184.221 26.1837 183.582 24.5597 182.445 23.3097C181.318 22.0502 179.799 21.4205 177.886 21.4205C175.234 21.4205 173.236 22.7794 171.891 25.4972C170.547 28.2055 169.874 32.1117 169.874 37.2159H169.988C170.3 36.25 170.826 35.393 171.565 34.6449C172.313 33.8873 173.198 33.2955 174.221 32.8693C175.244 32.4337 176.314 32.2159 177.431 32.2159C178.956 32.2159 180.348 32.6136 181.607 33.4091C182.876 34.2045 183.889 35.2888 184.647 36.6619C185.405 38.035 185.783 39.5833 185.783 41.3068C185.783 42.9167 185.438 44.4129 184.746 45.7955C184.065 47.178 183.108 48.2907 181.877 49.1335C180.656 49.9763 179.23 50.3977 177.602 50.3977ZM177.602 49.4886C179.003 49.4886 180.248 49.1193 181.337 48.3807C182.436 47.642 183.298 46.6525 183.923 45.4119C184.557 44.1714 184.874 42.803 184.874 41.3068C184.874 39.7727 184.538 38.3902 183.866 37.1591C183.203 35.9186 182.303 34.9384 181.167 34.2188C180.04 33.4896 178.776 33.125 177.374 33.125C176.266 33.125 175.239 33.357 174.292 33.821C173.345 34.2756 172.535 34.9053 171.863 35.7102C171.2 36.5057 170.727 37.4195 170.442 38.4517C170.158 39.4839 170.121 40.5682 170.329 41.7045C170.651 43.4091 171.153 44.839 171.835 45.9943C172.526 47.1496 173.359 48.0208 174.335 48.608C175.319 49.1951 176.408 49.4886 177.602 49.4886Z" fill="white"/>
<g clip-path="url(#clip0_401_140)">
<path d="M28.6243 65.9293L28.5793 67.1402L28.4367 67.9652L28.1515 68.7523L27.2283 69.9482L26.6279 70.4704" stroke="white" stroke-linecap="round" stroke-linejoin="round"/>
<path d="M25.6372 72.8847L25.5322 74.1108L25.0969 75.2688L24.2788 76.1846L23.4082 76.6917" stroke="white" stroke-linecap="round" stroke-linejoin="round"/>
<path d="M26.6284 70.4704L26.2831 70.7656L25.9754 71.1061L25.8253 71.3483L25.7203 71.6208L25.6452 72.2414L25.6377 72.8847" stroke="white" stroke-linecap="round" stroke-linejoin="round"/>
<path d="M16.0536 2.51274L15.9786 3.16363L15.8135 3.65559" stroke="white" stroke-linecap="round" stroke-linejoin="round"/>
<path d="M22.6807 12.4653L23.8064 12.9043L24.8722 13.5098L25.8253 14.2818L26.6434 15.2127L27.3039 16.2723L27.9643 17.8844L28.4822 20.276L28.6248 22.7282" stroke="white" stroke-linecap="round" stroke-linejoin="round"/>
<path d="M28.625 22.7282V65.9293" stroke="white" stroke-linecap="round" stroke-linejoin="round"/>
<path d="M17.5547 10.4218L20.0614 11.5874L20.7069 11.8296L21.3598 12.0415L21.5249 12.0945L21.69 12.1475L21.8026 12.1777L21.8326 12.1929H21.8476L21.8552 12.2004L22.0203 12.2458L22.6807 12.4653" stroke="white" stroke-linecap="round" stroke-linejoin="round"/>
<path d="M13.1865 3.65559L13.0439 3.25446L12.9763 2.89117L12.9463 2.51274" stroke="white" stroke-linecap="round" stroke-linejoin="round"/>
<path d="M15.8135 3.65559L16.3463 4.74545L16.7741 5.85045L17.1044 7.00087L17.4271 8.68864L17.5547 10.4218" stroke="white" stroke-linecap="round" stroke-linejoin="round"/>
<path d="M6.31934 12.4653L7.79786 11.9885L9.23885 11.4663L11.4454 10.4218" stroke="white" stroke-linecap="round" stroke-linejoin="round"/>
<path d="M14.5 0.378426L14.8978 0.446542L15.2505 0.635755L15.6333 1.03689L15.941 1.71805L16.0536 2.51274" stroke="white" stroke-linecap="round" stroke-linejoin="round"/>
<path d="M12.9463 2.51274L13.1114 1.54398L13.4341 0.953632L13.8094 0.597912L14.1997 0.416268L14.4999 0.378426" stroke="white" stroke-linecap="round" stroke-linejoin="round"/>
<path d="M0.375 22.7282L0.405021 21.5173L0.727743 19.0575L1.48577 16.7113L2.1087 15.5836L2.89674 14.5618L3.86491 13.6914L4.96817 13.0103L6.3191 12.4653" stroke="white" stroke-linecap="round" stroke-linejoin="round"/>
<path d="M11.4453 10.4218L11.5129 9.21087L11.9407 6.81165L12.4585 5.20713L13.1865 3.65559" stroke="white" stroke-linecap="round" stroke-linejoin="round"/>
<path d="M5.6814 76.7295L4.62317 76.1014L3.82763 75.1401L3.46738 74.1184L3.3623 72.8847" stroke="white" stroke-linecap="round" stroke-linejoin="round"/>
<path d="M2.37138 70.4704L1.47826 69.653L0.787785 68.6388L0.450052 67.3597L0.375 65.9293" stroke="white" stroke-linecap="round" stroke-linejoin="round"/>
<path d="M0.375 65.9293V22.7282" stroke="white" stroke-linecap="round" stroke-linejoin="round"/>
<path d="M3.36275 72.8847L3.29521 71.6662L3.08506 71.1894L2.52968 70.5915L2.37207 70.4704" stroke="white" stroke-linecap="round" stroke-linejoin="round"/>
<path d="M6.52246 85.7966V77.0096" stroke="white" stroke-linecap="round" stroke-linejoin="round"/>
<path d="M5.68164 76.7295V85.7966" stroke="white" stroke-linecap="round" stroke-linejoin="round"/>
<path d="M5.68164 85.7966L5.80172 86.2961L5.93682 86.5307L6.10193 86.6216" stroke="white" stroke-linecap="round" stroke-linejoin="round"/>
<path d="M6.10156 86.6216L6.26668 86.5307L6.40177 86.2961L6.52185 85.7966" stroke="white" stroke-linecap="round" stroke-linejoin="round"/>
<path d="M9.89979 77.3653L8.69896 77.335L7.61071 77.2215L6.52246 77.0096" stroke="white" stroke-linecap="round" stroke-linejoin="round"/>
<path d="M14.1244 77.3653H10.7471" stroke="white" stroke-linecap="round" stroke-linejoin="round"/>
<path d="M9.89941 77.3653V85.7966" stroke="white" stroke-linecap="round" stroke-linejoin="round"/>
<path d="M9.89941 85.7966L10.027 86.2961L10.1621 86.5307L10.3272 86.6216" stroke="white" stroke-linecap="round" stroke-linejoin="round"/>
<path d="M10.3271 86.6216L10.4848 86.5307L10.6198 86.2961L10.7474 85.7966" stroke="white" stroke-linecap="round" stroke-linejoin="round"/>
<path d="M14.125 77.3653V85.7966" stroke="white" stroke-linecap="round" stroke-linejoin="round"/>
<path d="M10.7471 85.7966V77.3653" stroke="white" stroke-linecap="round" stroke-linejoin="round"/>
<path d="M14.9648 85.7966V77.3653" stroke="white" stroke-linecap="round" stroke-linejoin="round"/>
<path d="M14.125 85.7966L14.2451 86.2961L14.3802 86.5307L14.5453 86.6216" stroke="white" stroke-linecap="round" stroke-linejoin="round"/>
<path d="M18.3428 85.7966L18.4704 86.2961L18.5979 86.5307L18.7631 86.6216" stroke="white" stroke-linecap="round" stroke-linejoin="round"/>
<path d="M14.5449 86.6216L14.71 86.5307L14.8451 86.2961L14.9652 85.7966" stroke="white" stroke-linecap="round" stroke-linejoin="round"/>
<path d="M22.5678 76.9869L21.9749 77.1231L21.3819 77.2291L20.2862 77.335L19.1904 77.3653" stroke="white" stroke-linecap="round" stroke-linejoin="round"/>
<path d="M18.3422 77.3653H14.9648" stroke="white" stroke-linecap="round" stroke-linejoin="round"/>
<path d="M18.3428 77.3653V85.7966" stroke="white" stroke-linecap="round" stroke-linejoin="round"/>
<path d="M18.7627 86.6216L18.9278 86.5307L19.0629 86.2961L19.1905 85.7966" stroke="white" stroke-linecap="round" stroke-linejoin="round"/>
<path d="M22.5684 76.9869V85.7966" stroke="white" stroke-linecap="round" stroke-linejoin="round"/>
<path d="M19.1904 85.7966V77.3653" stroke="white" stroke-linecap="round" stroke-linejoin="round"/>
<path d="M22.9883 86.6216L23.1534 86.5307L23.2885 86.2961L23.4086 85.7966" stroke="white" stroke-linecap="round" stroke-linejoin="round"/>
<path d="M22.5684 85.7966L22.6884 86.2961L22.8235 86.5307L22.9886 86.6216" stroke="white" stroke-linecap="round" stroke-linejoin="round"/>
<path d="M23.4082 85.7966V76.6917" stroke="white" stroke-linecap="round" stroke-linejoin="round"/>
</g>
<g clip-path="url(#clip1_401_140)">
<path d="M68.6243 65.9293L68.5793 67.1402L68.4367 67.9652L68.1515 68.7523L67.2283 69.9482L66.6279 70.4704" stroke="white" stroke-linecap="round" stroke-linejoin="round"/>
<path d="M65.6372 72.8847L65.5322 74.1108L65.0969 75.2688L64.2788 76.1846L63.4082 76.6917" stroke="white" stroke-linecap="round" stroke-linejoin="round"/>
<path d="M66.6284 70.4704L66.2831 70.7656L65.9754 71.1061L65.8253 71.3483L65.7203 71.6208L65.6452 72.2414L65.6377 72.8847" stroke="white" stroke-linecap="round" stroke-linejoin="round"/>
<path d="M56.0536 2.51274L55.9786 3.16363L55.8135 3.65559" stroke="white" stroke-linecap="round" stroke-linejoin="round"/>
<path d="M62.6807 12.4653L63.8064 12.9043L64.8722 13.5098L65.8253 14.2818L66.6434 15.2127L67.3039 16.2723L67.9643 17.8844L68.4822 20.276L68.6248 22.7282" stroke="white" stroke-linecap="round" stroke-linejoin="round"/>
<path d="M68.625 22.7282V65.9293" stroke="white" stroke-linecap="round" stroke-linejoin="round"/>
<path d="M57.5547 10.4218L60.0614 11.5874L60.7069 11.8296L61.3598 12.0415L61.5249 12.0945L61.69 12.1475L61.8026 12.1777L61.8326 12.1929H61.8476L61.8552 12.2004L62.0203 12.2458L62.6807 12.4653" stroke="white" stroke-linecap="round" stroke-linejoin="round"/>
<path d="M53.1865 3.65559L53.0439 3.25446L52.9763 2.89117L52.9463 2.51274" stroke="white" stroke-linecap="round" stroke-linejoin="round"/>
<path d="M55.8135 3.65559L56.3463 4.74545L56.7741 5.85045L57.1044 7.00087L57.4271 8.68864L57.5547 10.4218" stroke="white" stroke-linecap="round" stroke-linejoin="round"/>
<path d="M46.3193 12.4653L47.7979 11.9885L49.2388 11.4663L51.4454 10.4218" stroke="white" stroke-linecap="round" stroke-linejoin="round"/>
<path d="M54.5 0.378426L54.8978 0.446542L55.2505 0.635755L55.6333 1.03689L55.941 1.71805L56.0536 2.51274" stroke="white" stroke-linecap="round" stroke-linejoin="round"/>
<path d="M52.9463 2.51274L53.1114 1.54398L53.4341 0.953632L53.8094 0.597912L54.1997 0.416268L54.4999 0.378426" stroke="white" stroke-linecap="round" stroke-linejoin="round"/>
<path d="M40.375 22.7282L40.405 21.5173L40.7277 19.0575L41.4858 16.7113L42.1087 15.5836L42.8967 14.5618L43.8649 13.6914L44.9682 13.0103L46.3191 12.4653" stroke="white" stroke-linecap="round" stroke-linejoin="round"/>
<path d="M51.4453 10.4218L51.5129 9.21087L51.9407 6.81165L52.4585 5.20713L53.1865 3.65559" stroke="white" stroke-linecap="round" stroke-linejoin="round"/>
<path d="M45.6814 76.7295L44.6232 76.1014L43.8276 75.1401L43.4674 74.1184L43.3623 72.8847" stroke="white" stroke-linecap="round" stroke-linejoin="round"/>
<path d="M42.3714 70.4704L41.4783 69.653L40.7878 68.6388L40.4501 67.3597L40.375 65.9293" stroke="white" stroke-linecap="round" stroke-linejoin="round"/>
<path d="M40.375 65.9293V22.7282" stroke="white" stroke-linecap="round" stroke-linejoin="round"/>
<path d="M43.3628 72.8847L43.2952 71.6662L43.0851 71.1894L42.5297 70.5915L42.3721 70.4704" stroke="white" stroke-linecap="round" stroke-linejoin="round"/>
<path d="M46.5225 85.7966V77.0096" stroke="white" stroke-linecap="round" stroke-linejoin="round"/>
<path d="M45.6816 76.7295V85.7966" stroke="white" stroke-linecap="round" stroke-linejoin="round"/>
<path d="M45.6816 85.7966L45.8017 86.2961L45.9368 86.5307L46.1019 86.6216" stroke="white" stroke-linecap="round" stroke-linejoin="round"/>
<path d="M46.1016 86.6216L46.2667 86.5307L46.4018 86.2961L46.5219 85.7966" stroke="white" stroke-linecap="round" stroke-linejoin="round"/>
<path d="M49.8998 77.3653L48.699 77.335L47.6107 77.2215L46.5225 77.0096" stroke="white" stroke-linecap="round" stroke-linejoin="round"/>
<path d="M54.1244 77.3653H50.7471" stroke="white" stroke-linecap="round" stroke-linejoin="round"/>
<path d="M49.8994 77.3653V85.7966" stroke="white" stroke-linecap="round" stroke-linejoin="round"/>
<path d="M49.8994 85.7966L50.027 86.2961L50.1621 86.5307L50.3272 86.6216" stroke="white" stroke-linecap="round" stroke-linejoin="round"/>
<path d="M50.3271 86.6216L50.4848 86.5307L50.6198 86.2961L50.7474 85.7966" stroke="white" stroke-linecap="round" stroke-linejoin="round"/>
<path d="M54.125 77.3653V85.7966" stroke="white" stroke-linecap="round" stroke-linejoin="round"/>
<path d="M50.7471 85.7966V77.3653" stroke="white" stroke-linecap="round" stroke-linejoin="round"/>
<path d="M54.9648 85.7966V77.3653" stroke="white" stroke-linecap="round" stroke-linejoin="round"/>
<path d="M54.125 85.7966L54.2451 86.2961L54.3802 86.5307L54.5453 86.6216" stroke="white" stroke-linecap="round" stroke-linejoin="round"/>
<path d="M58.3428 85.7966L58.4704 86.2961L58.5979 86.5307L58.7631 86.6216" stroke="white" stroke-linecap="round" stroke-linejoin="round"/>
<path d="M54.5449 86.6216L54.71 86.5307L54.8451 86.2961L54.9652 85.7966" stroke="white" stroke-linecap="round" stroke-linejoin="round"/>
<path d="M62.5678 76.9869L61.9749 77.1231L61.3819 77.2291L60.2862 77.335L59.1904 77.3653" stroke="white" stroke-linecap="round" stroke-linejoin="round"/>
<path d="M58.3422 77.3653H54.9648" stroke="white" stroke-linecap="round" stroke-linejoin="round"/>
<path d="M58.3428 77.3653V85.7966" stroke="white" stroke-linecap="round" stroke-linejoin="round"/>
<path d="M58.7627 86.6216L58.9278 86.5307L59.0629 86.2961L59.1905 85.7966" stroke="white" stroke-linecap="round" stroke-linejoin="round"/>
<path d="M62.5684 76.9869V85.7966" stroke="white" stroke-linecap="round" stroke-linejoin="round"/>
<path d="M59.1904 85.7966V77.3653" stroke="white" stroke-linecap="round" stroke-linejoin="round"/>
<path d="M62.9883 86.6216L63.1534 86.5307L63.2885 86.2961L63.4086 85.7966" stroke="white" stroke-linecap="round" stroke-linejoin="round"/>
<path d="M62.5684 85.7966L62.6884 86.2961L62.8235 86.5307L62.9886 86.6216" stroke="white" stroke-linecap="round" stroke-linejoin="round"/>
<path d="M63.4082 85.7966V76.6917" stroke="white" stroke-linecap="round" stroke-linejoin="round"/>
</g>
<defs>
<clipPath id="clip0_401_140">
<rect width="29" height="87" fill="white"/>
</clipPath>
<clipPath id="clip1_401_140">
<rect width="29" height="87" fill="white" transform="translate(40)"/>
</clipPath>
</defs>
</svg>
