<svg width="18" height="24" viewBox="0 0 18 24" fill="none" xmlns="http://www.w3.org/2000/svg">
<g clip-path="url(#clip0_239_658)">
<path d="M15.0328 12.6911C15.0637 16.0365 17.9676 17.1496 18 17.1637C17.9753 17.2424 17.5359 18.7499 16.47 20.308C15.5489 21.6545 14.5926 22.9961 13.0858 23.0242C11.6057 23.0516 11.1297 22.1467 9.4373 22.1467C7.74488 22.1467 7.21683 22.9968 5.8155 23.0516C4.36144 23.1065 3.25402 21.5955 2.32519 20.2539C0.427453 17.5089 -1.0238 12.4984 0.924563 9.11568C1.89206 7.43592 3.62175 6.37209 5.49909 6.34467C6.92714 6.31725 8.27433 7.30514 9.14761 7.30514C10.0209 7.30514 11.6578 6.11686 13.3797 6.29193C14.1004 6.32217 16.124 6.58303 17.4227 8.48498C17.3179 8.54967 15.0089 9.89404 15.0335 12.6911M12.2519 4.47647C13.0239 3.54201 13.5435 2.24123 13.4015 0.946777C12.2885 0.991777 10.9434 1.68857 10.1453 2.62232C9.43027 3.4492 8.80378 4.77318 8.97253 6.04162C10.2128 6.13725 11.4799 5.41162 12.2519 4.47647Z" fill="white"/>
</g>
<defs>
<clipPath id="clip0_239_658">
<rect width="18" height="22.1063" fill="white" transform="translate(0 0.946777)"/>
</clipPath>
</defs>
</svg>
