<svg width="100" height="100" viewBox="0 0 100 100" fill="none" xmlns="http://www.w3.org/2000/svg">
<path d="M4 0H0V4H4V0Z" fill="white"/>
<path d="M8 0H4V4H8V0Z" fill="white"/>
<path d="M12 0H8V4H12V0Z" fill="white"/>
<path d="M16 0H12V4H16V0Z" fill="white"/>
<path d="M20 0H16V4H20V0Z" fill="white"/>
<path d="M24 0H20V4H24V0Z" fill="white"/>
<path d="M28 0H24V4H28V0Z" fill="white"/>
<path d="M36 0H32V4H36V0Z" fill="white"/>
<path d="M44 0H40V4H44V0Z" fill="white"/>
<path d="M48 0H44V4H48V0Z" fill="white"/>
<path d="M56 0H52V4H56V0Z" fill="white"/>
<path d="M60 0H56V4H60V0Z" fill="white"/>
<path d="M64 0H60V4H64V0Z" fill="white"/>
<path d="M68 0H64V4H68V0Z" fill="white"/>
<path d="M76 0H72V4H76V0Z" fill="white"/>
<path d="M80 0H76V4H80V0Z" fill="white"/>
<path d="M84 0H80V4H84V0Z" fill="white"/>
<path d="M88 0H84V4H88V0Z" fill="white"/>
<path d="M92 0H88V4H92V0Z" fill="white"/>
<path d="M96 0H92V4H96V0Z" fill="white"/>
<path d="M100 0H96V4H100V0Z" fill="white"/>
<path d="M4 4H0V8H4V4Z" fill="white"/>
<path d="M28 4H24L24 8H28V4Z" fill="white"/>
<path d="M44 4H40V8H44V4Z" fill="white"/>
<path d="M48 4H44V8H48V4Z" fill="white"/>
<path d="M56 4H52V8H56V4Z" fill="white"/>
<path d="M60 4H56V8H60V4Z" fill="white"/>
<path d="M76 4H72V8H76V4Z" fill="white"/>
<path d="M100 4H96V8H100V4Z" fill="white"/>
<path d="M4 8H0V12H4V8Z" fill="white"/>
<path d="M12 8H8V12H12V8Z" fill="white"/>
<path d="M16 8H12V12H16V8Z" fill="white"/>
<path d="M20 8H16V12H20V8Z" fill="white"/>
<path d="M28 8H24V12H28V8Z" fill="white"/>
<path d="M40 8H36V12H40V8Z" fill="white"/>
<path d="M52 8H48V12H52V8Z" fill="white"/>
<path d="M76 8H72V12H76V8Z" fill="white"/>
<path d="M84 8H80V12H84V8Z" fill="white"/>
<path d="M88 8H84V12H88V8Z" fill="white"/>
<path d="M92 8H88V12H92V8Z" fill="white"/>
<path d="M100 8H96V12H100V8Z" fill="white"/>
<path d="M4 12H0V16H4V12Z" fill="white"/>
<path d="M12 12H8V16H12V12Z" fill="white"/>
<path d="M16 12H12V16H16V12Z" fill="white"/>
<path d="M20 12H16V16H20V12Z" fill="white"/>
<path d="M28 12H24V16H28V12Z" fill="white"/>
<path d="M36 12H32V16H36V12Z" fill="white"/>
<path d="M48 12H44V16H48V12Z" fill="white"/>
<path d="M52 12H48V16H52V12Z" fill="white"/>
<path d="M60 12H56V16H60V12Z" fill="white"/>
<path d="M76 12H72V16H76V12Z" fill="white"/>
<path d="M84 12H80V16H84V12Z" fill="white"/>
<path d="M88 12H84V16H88V12Z" fill="white"/>
<path d="M92 12H88V16H92V12Z" fill="white"/>
<path d="M100 12H96V16H100V12Z" fill="white"/>
<path d="M4 16H0V20H4V16Z" fill="white"/>
<path d="M12 16H8V20H12V16Z" fill="white"/>
<path d="M16 16H12V20H16V16Z" fill="white"/>
<path d="M20 16H16V20H20V16Z" fill="white"/>
<path d="M28 16H24V20H28V16Z" fill="white"/>
<path d="M36 16H32V20H36V16Z" fill="white"/>
<path d="M40 16H36V20H40V16Z" fill="white"/>
<path d="M44 16H40V20H44V16Z" fill="white"/>
<path d="M56 16H52V20H56V16Z" fill="white"/>
<path d="M64 16H60L60 20H64V16Z" fill="white"/>
<path d="M68 16H64V20H68V16Z" fill="white"/>
<path d="M76 16H72V20H76V16Z" fill="white"/>
<path d="M84 16H80V20H84V16Z" fill="white"/>
<path d="M88 16H84V20H88V16Z" fill="white"/>
<path d="M92 16H88V20H92V16Z" fill="white"/>
<path d="M100 16H96V20H100V16Z" fill="white"/>
<path d="M4 20H0V24H4V20Z" fill="white"/>
<path d="M28 20H24V24H28V20Z" fill="white"/>
<path d="M36 20H32V24H36V20Z" fill="white"/>
<path d="M44 20H40V24H44V20Z" fill="white"/>
<path d="M48 20H44V24H48V20Z" fill="white"/>
<path d="M52 20H48V24H52V20Z" fill="white"/>
<path d="M56 20H52V24H56V20Z" fill="white"/>
<path d="M60 20H56V24H60L60 20Z" fill="white"/>
<path d="M64 20H60L60 24H64V20Z" fill="white"/>
<path d="M76 20H72V24H76V20Z" fill="white"/>
<path d="M100 20H96V24H100V20Z" fill="white"/>
<path d="M4 24H0V28H4V24Z" fill="white"/>
<path d="M8 24L4 24V28H8V24Z" fill="white"/>
<path d="M12 24H8V28H12V24Z" fill="white"/>
<path d="M16 24H12V28H16V24Z" fill="white"/>
<path d="M20 24H16V28H20V24Z" fill="white"/>
<path d="M24 24L20 24V28H24L24 24Z" fill="white"/>
<path d="M28 24H24L24 28H28V24Z" fill="white"/>
<path d="M36 24H32V28H36V24Z" fill="white"/>
<path d="M44 24H40V28H44V24Z" fill="white"/>
<path d="M52 24H48V28H52V24Z" fill="white"/>
<path d="M60 24H56V28H60V24Z" fill="white"/>
<path d="M68 24L64 24V28H68V24Z" fill="white"/>
<path d="M76 24H72V28H76V24Z" fill="white"/>
<path d="M80 24L76 24V28H80V24Z" fill="white"/>
<path d="M84 24H80V28H84V24Z" fill="white"/>
<path d="M88 24H84V28H88V24Z" fill="white"/>
<path d="M92 24H88V28H92V24Z" fill="white"/>
<path d="M96 24L92 24V28H96V24Z" fill="white"/>
<path d="M100 24H96V28H100V24Z" fill="white"/>
<path d="M36 28H32V32H36V28Z" fill="white"/>
<path d="M48 28H44V32H48V28Z" fill="white"/>
<path d="M52 28H48V32H52V28Z" fill="white"/>
<path d="M4 32H0V36H4V32Z" fill="white"/>
<path d="M8 32H4V36H8V32Z" fill="white"/>
<path d="M12 32H8V36H12V32Z" fill="white"/>
<path d="M20 32H16V36H20V32Z" fill="white"/>
<path d="M28 32H24V36H28V32Z" fill="white"/>
<path d="M36 32H32V36H36V32Z" fill="white"/>
<path d="M40 32H36V36H40V32Z" fill="white"/>
<path d="M44 32H40V36H44V32Z" fill="white"/>
<path d="M56 32H52V36H56V32Z" fill="white"/>
<path d="M60 32H56V36H60V32Z" fill="white"/>
<path d="M64 32H60V36H64V32Z" fill="white"/>
<path d="M72 32H68V36H72V32Z" fill="white"/>
<path d="M76 32H72V36H76V32Z" fill="white"/>
<path d="M80 32H76V36H80V32Z" fill="white"/>
<path d="M84 32H80V36H84V32Z" fill="white"/>
<path d="M88 32H84V36H88V32Z" fill="white"/>
<path d="M100 32H96V36H100V32Z" fill="white"/>
<path d="M4 36H0V40H4V36Z" fill="white"/>
<path d="M12 36H8V40H12V36Z" fill="white"/>
<path d="M24 36H20V40H24L24 36Z" fill="white"/>
<path d="M36 36H32V40H36V36Z" fill="white"/>
<path d="M40 36H36V40H40V36Z" fill="white"/>
<path d="M44 36H40V40H44V36Z" fill="white"/>
<path d="M52 36H48V40H52V36Z" fill="white"/>
<path d="M56 36H52V40H56V36Z" fill="white"/>
<path d="M68 36H64V40H68V36Z" fill="white"/>
<path d="M72 36H68V40H72V36Z" fill="white"/>
<path d="M76 36H72V40H76V36Z" fill="white"/>
<path d="M80 36H76V40H80V36Z" fill="white"/>
<path d="M88 36H84V40H88V36Z" fill="white"/>
<path d="M92 36H88V40H92V36Z" fill="white"/>
<path d="M8 40H4V44H8V40Z" fill="white"/>
<path d="M12 40H8V44H12V40Z" fill="white"/>
<path d="M20 40H16V44H20V40Z" fill="white"/>
<path d="M28 40H24L24 44H28V40Z" fill="white"/>
<path d="M32 40H28V44H32V40Z" fill="white"/>
<path d="M40 40H36V44H40V40Z" fill="white"/>
<path d="M48 40H44V44H48V40Z" fill="white"/>
<path d="M52 40H48V44H52V40Z" fill="white"/>
<path d="M60 40H56V44H60V40Z" fill="white"/>
<path d="M64 40H60V44H64V40Z" fill="white"/>
<path d="M72 40H68V44H72V40Z" fill="white"/>
<path d="M84 40H80V44H84V40Z" fill="white"/>
<path d="M88 40H84V44H88V40Z" fill="white"/>
<path d="M92 40H88V44H92V40Z" fill="white"/>
<path d="M96 40H92V44H96V40Z" fill="white"/>
<path d="M100 40H96V44H100V40Z" fill="white"/>
<path d="M12 44H8V48H12V44Z" fill="white"/>
<path d="M24 44H20V48H24L24 44Z" fill="white"/>
<path d="M32 44H28V48H32V44Z" fill="white"/>
<path d="M36 44H32V48H36V44Z" fill="white"/>
<path d="M52 44H48V48H52V44Z" fill="white"/>
<path d="M60 44H56V48H60V44Z" fill="white"/>
<path d="M64 44H60V48H64V44Z" fill="white"/>
<path d="M72 44H68V48H72V44Z" fill="white"/>
<path d="M76 44H72V48H76V44Z" fill="white"/>
<path d="M8 48H4V52H8V48Z" fill="white"/>
<path d="M24 48H20V52H24V48Z" fill="white"/>
<path d="M28 48H24V52H28V48Z" fill="white"/>
<path d="M44 48H40V52H44V48Z" fill="white"/>
<path d="M52 48H48V52H52V48Z" fill="white"/>
<path d="M60 48H56V52H60V48Z" fill="white"/>
<path d="M72 48H68V52H72V48Z" fill="white"/>
<path d="M80 48H76V52H80V48Z" fill="white"/>
<path d="M84 48H80V52H84V48Z" fill="white"/>
<path d="M92 48H88V52H92V48Z" fill="white"/>
<path d="M12 52H8V56H12V52Z" fill="white"/>
<path d="M16 52H12V56H16V52Z" fill="white"/>
<path d="M20 52H16V56H20V52Z" fill="white"/>
<path d="M24 52H20V56H24V52Z" fill="white"/>
<path d="M32 52H28V56H32V52Z" fill="white"/>
<path d="M44 52H40V56H44V52Z" fill="white"/>
<path d="M60 52H56V56H60V52Z" fill="white"/>
<path d="M72 52H68V56H72V52Z" fill="white"/>
<path d="M84 52H80V56H84V52Z" fill="white"/>
<path d="M100 52H96V56H100V52Z" fill="white"/>
<path d="M4 56H0V60H4V56Z" fill="white"/>
<path d="M16 56H12V60H16V56Z" fill="white"/>
<path d="M20 56H16V60H20V56Z" fill="white"/>
<path d="M24 56H20V60H24V56Z" fill="white"/>
<path d="M28 56H24V60H28V56Z" fill="white"/>
<path d="M32 56H28V60H32V56Z" fill="white"/>
<path d="M36 56H32V60H36V56Z" fill="white"/>
<path d="M40 56H36V60H40V56Z" fill="white"/>
<path d="M44 56H40V60H44V56Z" fill="white"/>
<path d="M48 56H44V60H48V56Z" fill="white"/>
<path d="M56 56H52V60H56V56Z" fill="white"/>
<path d="M64 56H60L60 60H64V56Z" fill="white"/>
<path d="M68 56H64V60H68V56Z" fill="white"/>
<path d="M80 56H76V60H80V56Z" fill="white"/>
<path d="M84 56H80V60H84V56Z" fill="white"/>
<path d="M88 56H84V60H88V56Z" fill="white"/>
<path d="M92 56H88V60H92V56Z" fill="white"/>
<path d="M96 56H92V60H96V56Z" fill="white"/>
<path d="M100 56H96V60H100V56Z" fill="white"/>
<path d="M12 60L8 60V64H12V60Z" fill="white"/>
<path d="M40 60H36V64H40V60Z" fill="white"/>
<path d="M44 60H40V64H44V60Z" fill="white"/>
<path d="M48 60H44V64H48V60Z" fill="white"/>
<path d="M52 60H48V64H52V60Z" fill="white"/>
<path d="M56 60H52V64H56V60Z" fill="white"/>
<path d="M60 60H56V64H60L60 60Z" fill="white"/>
<path d="M80 60H76V64H80V60Z" fill="white"/>
<path d="M84 60H80V64H84V60Z" fill="white"/>
<path d="M88 60H84V64H88V60Z" fill="white"/>
<path d="M8 64H4V68H8V64Z" fill="white"/>
<path d="M12 64H8V68H12V64Z" fill="white"/>
<path d="M16 64H12V68H16V64Z" fill="white"/>
<path d="M20 64H16V68H20V64Z" fill="white"/>
<path d="M28 64H24V68H28V64Z" fill="white"/>
<path d="M32 64H28V68H32V64Z" fill="white"/>
<path d="M36 64H32V68H36V64Z" fill="white"/>
<path d="M52 64H48V68H52V64Z" fill="white"/>
<path d="M56 64H52V68H56V64Z" fill="white"/>
<path d="M60 64H56V68H60V64Z" fill="white"/>
<path d="M68 64H64V68H68V64Z" fill="white"/>
<path d="M72 64H68V68H72V64Z" fill="white"/>
<path d="M76 64H72V68H76V64Z" fill="white"/>
<path d="M80 64H76V68H80V64Z" fill="white"/>
<path d="M84 64H80V68H84V64Z" fill="white"/>
<path d="M88 64H84V68H88V64Z" fill="white"/>
<path d="M100 64H96V68H100V64Z" fill="white"/>
<path d="M36 68H32V72H36V68Z" fill="white"/>
<path d="M40 68H36V72H40V68Z" fill="white"/>
<path d="M52 68H48V72H52V68Z" fill="white"/>
<path d="M60 68H56V72H60V68Z" fill="white"/>
<path d="M68 68H64V72H68V68Z" fill="white"/>
<path d="M84 68H80V72H84V68Z" fill="white"/>
<path d="M88 68H84V72H88V68Z" fill="white"/>
<path d="M92 68H88V72H92V68Z" fill="white"/>
<path d="M4 72H0V76H4V72Z" fill="white"/>
<path d="M8 72H4V76H8V72Z" fill="white"/>
<path d="M12 72H8V76H12V72Z" fill="white"/>
<path d="M16 72H12V76H16V72Z" fill="white"/>
<path d="M20 72H16V76H20V72Z" fill="white"/>
<path d="M24 72H20V76H24V72Z" fill="white"/>
<path d="M28 72H24V76H28V72Z" fill="white"/>
<path d="M44 72H40V76H44V72Z" fill="white"/>
<path d="M52 72H48V76H52V72Z" fill="white"/>
<path d="M68 72H64V76H68V72Z" fill="white"/>
<path d="M76 72H72V76H76V72Z" fill="white"/>
<path d="M84 72H80V76H84V72Z" fill="white"/>
<path d="M88 72H84V76H88V72Z" fill="white"/>
<path d="M96 72H92V76H96V72Z" fill="white"/>
<path d="M4 76H0V80H4V76Z" fill="white"/>
<path d="M28 76H24L24 80H28V76Z" fill="white"/>
<path d="M40 76H36V80H40V76Z" fill="white"/>
<path d="M44 76H40V80H44V76Z" fill="white"/>
<path d="M48 76H44V80H48V76Z" fill="white"/>
<path d="M64 76H60V80H64V76Z" fill="white"/>
<path d="M68 76H64V80H68V76Z" fill="white"/>
<path d="M84 76H80V80H84V76Z" fill="white"/>
<path d="M88 76H84V80H88V76Z" fill="white"/>
<path d="M92 76H88V80H92V76Z" fill="white"/>
<path d="M96 76H92V80H96V76Z" fill="white"/>
<path d="M4 80H0V84H4V80Z" fill="white"/>
<path d="M12 80H8V84H12V80Z" fill="white"/>
<path d="M16 80H12V84H16V80Z" fill="white"/>
<path d="M20 80H16V84H20V80Z" fill="white"/>
<path d="M28 80H24V84H28V80Z" fill="white"/>
<path d="M36 80H32V84H36V80Z" fill="white"/>
<path d="M40 80H36V84H40V80Z" fill="white"/>
<path d="M56 80H52V84H56V80Z" fill="white"/>
<path d="M60 80H56V84H60L60 80Z" fill="white"/>
<path d="M64 80H60L60 84H64V80Z" fill="white"/>
<path d="M68 80H64V84H68V80Z" fill="white"/>
<path d="M72 80H68V84H72V80Z" fill="white"/>
<path d="M76 80H72V84H76V80Z" fill="white"/>
<path d="M80 80H76V84H80V80Z" fill="white"/>
<path d="M84 80H80V84H84V80Z" fill="white"/>
<path d="M92 80H88V84H92V80Z" fill="white"/>
<path d="M96 80H92V84H96V80Z" fill="white"/>
<path d="M4 84H0V88H4V84Z" fill="white"/>
<path d="M12 84H8V88H12V84Z" fill="white"/>
<path d="M16 84H12V88H16V84Z" fill="white"/>
<path d="M20 84H16V88H20V84Z" fill="white"/>
<path d="M28 84H24V88H28V84Z" fill="white"/>
<path d="M40 84H36V88H40V84Z" fill="white"/>
<path d="M44 84H40V88H44V84Z" fill="white"/>
<path d="M48 84H44V88H48V84Z" fill="white"/>
<path d="M60 84H56V88H60V84Z" fill="white"/>
<path d="M76 84H72V88H76V84Z" fill="white"/>
<path d="M84 84H80V88H84V84Z" fill="white"/>
<path d="M88 84H84V88H88V84Z" fill="white"/>
<path d="M100 84H96V88H100V84Z" fill="white"/>
<path d="M4 88H0V92H4V88Z" fill="white"/>
<path d="M12 88H8V92H12V88Z" fill="white"/>
<path d="M16 88H12V92H16V88Z" fill="white"/>
<path d="M20 88H16V92H20V88Z" fill="white"/>
<path d="M28 88H24V92H28V88Z" fill="white"/>
<path d="M36 88H32V92H36V88Z" fill="white"/>
<path d="M40 88H36V92H40V88Z" fill="white"/>
<path d="M48 88H44V92H48V88Z" fill="white"/>
<path d="M60 88H56V92H60V88Z" fill="white"/>
<path d="M64 88H60V92H64V88Z" fill="white"/>
<path d="M68 88H64V92H68V88Z" fill="white"/>
<path d="M92 88H88V92H92V88Z" fill="white"/>
<path d="M96 88H92V92H96V88Z" fill="white"/>
<path d="M4 92H0V96H4V92Z" fill="white"/>
<path d="M28 92H24V96H28V92Z" fill="white"/>
<path d="M36 92H32V96H36V92Z" fill="white"/>
<path d="M40 92H36V96H40V92Z" fill="white"/>
<path d="M48 92H44V96H48V92Z" fill="white"/>
<path d="M56 92H52V96H56V92Z" fill="white"/>
<path d="M60 92H56V96H60V92Z" fill="white"/>
<path d="M68 92H64V96H68V92Z" fill="white"/>
<path d="M72 92H68V96H72V92Z" fill="white"/>
<path d="M80 92H76V96H80V92Z" fill="white"/>
<path d="M84 92H80V96H84V92Z" fill="white"/>
<path d="M88 92H84V96H88V92Z" fill="white"/>
<path d="M92 92H88V96H92V92Z" fill="white"/>
<path d="M96 92H92V96H96V92Z" fill="white"/>
<path d="M4 96H0V100H4V96Z" fill="white"/>
<path d="M8 96H4V100H8V96Z" fill="white"/>
<path d="M12 96H8V100H12V96Z" fill="white"/>
<path d="M16 96H12V100H16V96Z" fill="white"/>
<path d="M20 96H16V100H20V96Z" fill="white"/>
<path d="M24 96H20V100H24L24 96Z" fill="white"/>
<path d="M28 96H24L24 100H28V96Z" fill="white"/>
<path d="M36 96H32V100H36V96Z" fill="white"/>
<path d="M44 96H40V100H44V96Z" fill="white"/>
<path d="M48 96H44V100H48V96Z" fill="white"/>
<path d="M52 96H48V100H52V96Z" fill="white"/>
<path d="M60 96H56V100H60V96Z" fill="white"/>
<path d="M64 96H60V100H64V96Z" fill="white"/>
<path d="M76 96H72V100H76V96Z" fill="white"/>
<path d="M80 96H76V100H80V96Z" fill="white"/>
<path d="M84 96H80V100H84V96Z" fill="white"/>
<path d="M88 96H84V100H88V96Z" fill="white"/>
<path d="M92 96H88V100H92V96Z" fill="white"/>
<path d="M96 96H92V100H96V96Z" fill="white"/>
<path d="M100 96H96V100H100V96Z" fill="white"/>
</svg>
